<svg width="18" height="18" viewBox="0 0 18 18" fill="none" xmlns="http://www.w3.org/2000/svg">
<path d="M4.74402 9.58679H6.7171V17.7097C6.7171 17.8701 6.84703 18 7.00742 18H10.3528C10.5132 18 10.6432 17.8701 10.6432 17.7097V9.62508H12.9114C13.0589 9.62508 13.183 9.51441 13.1998 9.36791L13.5443 6.37748C13.5538 6.29522 13.5277 6.21281 13.4727 6.15108C13.4176 6.08931 13.3387 6.05394 13.256 6.05394H10.6433V4.17937C10.6433 3.61431 10.9476 3.32775 11.5477 3.32775C11.6333 3.32775 13.256 3.32775 13.256 3.32775C13.4164 3.32775 13.5463 3.19774 13.5463 3.03743V0.292465C13.5463 0.132082 13.4164 0.00214453 13.256 0.00214453H10.9017C10.8852 0.00133594 10.8483 0 10.7939 0C10.3854 0 8.96558 0.0801913 7.84399 1.11199C6.60129 2.25541 6.77405 3.62443 6.81532 3.86181V6.05387H4.74399C4.5836 6.05387 4.45367 6.18381 4.45367 6.34419V9.29644C4.4537 9.45679 4.58364 9.58679 4.74402 9.58679Z" fill="#385C8E"/>
</svg>
