<svg width="17" height="18" viewBox="0 0 17 18" fill="none" xmlns="http://www.w3.org/2000/svg">
<path d="M4.27735e-05 12.706V4.52225C4.27735e-05 4.52225 0.58166 0.0812007 4.83352 0.0249848C9.08647 -0.031231 12.8486 0.0249848 12.8486 0.0249848C12.8486 0.0249848 17.4215 0.875791 16.9675 5.639L16.9988 13.2173V14.2011C16.9988 14.2011 16.5707 17.4335 13.281 18H3.99137C3.99137 17.9989 -0.0150923 17.96 4.27735e-05 12.706Z" fill="url(#paint0_linear_953_11)"/>
<path d="M1.20444 6.08984C1.48768 6.14606 15.6876 6.08984 15.6876 6.08984V13.6087C15.6876 13.6087 15.4043 17.3168 11.4227 16.9763H4.31469C4.31469 16.9763 0.977413 16.2 1.20444 13.0444V6.08984Z" fill="white"/>
<path d="M5.68457 4.84653H1.31055C1.31055 4.84653 1.77217 2.01087 4.49431 1.89844L5.68457 4.84653Z" fill="white"/>
<path d="M6.01172 1.89844L7.32414 4.84653H10.5501L9.40197 1.89844H6.01172Z" fill="white"/>
<path d="M10.8125 1.8974L12.1001 4.84549H15.7206C15.7206 4.84549 15.0892 1.2174 10.8125 1.8974Z" fill="white"/>
<path d="M6.1378 12.115V9.71506V9.20803C6.1378 9.20803 6.1378 7.93561 7.17671 8.55831C8.07508 9.09668 10.3994 10.501 11.0091 10.8696C11.1043 10.9269 11.1572 10.9594 11.1572 10.9594C11.1572 10.9594 12.3129 11.4037 11.0859 12.115C9.85886 12.8264 8.89346 13.4383 8.89346 13.4383L7.17563 14.3388C7.17563 14.3388 6.2232 14.9518 6.13672 13.6675V12.115H6.1378Z" fill="url(#paint1_linear_953_11)"/>
<defs>
<linearGradient id="paint0_linear_953_11" x1="-0.000530196" y1="8.99883" x2="16.9994" y2="8.99883" gradientUnits="userSpaceOnUse">
<stop stop-color="#FDBA18"/>
<stop offset="0.5025" stop-color="#ED2490"/>
<stop offset="1" stop-color="#EF3C26"/>
</linearGradient>
<linearGradient id="paint1_linear_953_11" x1="6.13807" y1="11.4359" x2="11.6512" y2="11.4359" gradientUnits="userSpaceOnUse">
<stop stop-color="#FDBA18"/>
<stop offset="0.5025" stop-color="#ED2490"/>
<stop offset="1" stop-color="#EF3C26"/>
</linearGradient>
</defs>
</svg>
