<svg width="20" height="20" viewBox="0 0 20 20" fill="none" xmlns="http://www.w3.org/2000/svg">
<g clip-path="url(#clip0_836_5)">
<g clip-path="url(#clip1_836_5)">
<path d="M5.82031 11.9141C5.82031 12.3181 5.65981 12.7056 5.37411 12.9913C5.08841 13.277 4.70092 13.4375 4.29688 13.4375C3.89283 13.4375 3.50534 13.277 3.21964 12.9913C2.93394 12.7056 2.77344 12.3181 2.77344 11.9141C2.77344 11.0547 3.4375 10.3906 4.29688 10.3906H5.82031V11.9141ZM6.5625 11.9141C6.5625 11.51 6.723 11.1225 7.0087 10.8368C7.2944 10.5511 7.6819 10.3906 8.08594 10.3906C8.48998 10.3906 8.87747 10.5511 9.16317 10.8368C9.44887 11.1225 9.60938 11.51 9.60938 11.9141V15.7031C9.60938 16.1072 9.44887 16.4947 9.16317 16.7804C8.87747 17.0661 8.48998 17.2266 8.08594 17.2266C7.6819 17.2266 7.2944 17.0661 7.0087 16.7804C6.723 16.4947 6.5625 16.1072 6.5625 15.7031V11.9141Z" fill="#E01E5A"/>
<path d="M8.08594 5.82031C7.6819 5.82031 7.2944 5.65981 7.0087 5.37411C6.723 5.08841 6.5625 4.70092 6.5625 4.29688C6.5625 3.89283 6.723 3.50534 7.0087 3.21964C7.2944 2.93394 7.6819 2.77344 8.08594 2.77344C8.94531 2.77344 9.60938 3.4375 9.60938 4.29688V5.82031H8.08594ZM8.08594 6.5625C8.48998 6.5625 8.87747 6.723 9.16317 7.0087C9.44887 7.2944 9.60938 7.6819 9.60938 8.08594C9.60938 8.48998 9.44887 8.87747 9.16317 9.16317C8.87747 9.44887 8.48998 9.60938 8.08594 9.60938H4.29688C3.89283 9.60938 3.50534 9.44887 3.21964 9.16317C2.93394 8.87747 2.77344 8.48998 2.77344 8.08594C2.77344 7.6819 2.93394 7.2944 3.21964 7.0087C3.50534 6.723 3.89283 6.5625 4.29688 6.5625H8.08594Z" fill="#36C5F0"/>
<path d="M14.1797 8.08594C14.1797 7.6819 14.3402 7.2944 14.6259 7.0087C14.9116 6.723 15.2991 6.5625 15.7031 6.5625C16.1072 6.5625 16.4947 6.723 16.7804 7.0087C17.0661 7.2944 17.2266 7.6819 17.2266 8.08594C17.2266 8.94531 16.5625 9.60938 15.7031 9.60938H14.1797V8.08594ZM13.4375 8.08594C13.4375 8.48998 13.277 8.87747 12.9913 9.16317C12.7056 9.44887 12.3181 9.60938 11.9141 9.60938C11.51 9.60938 11.1225 9.44887 10.8368 9.16317C10.5511 8.87747 10.3906 8.48998 10.3906 8.08594V4.29688C10.3906 3.89283 10.5511 3.50534 10.8368 3.21964C11.1225 2.93394 11.51 2.77344 11.9141 2.77344C12.3181 2.77344 12.7056 2.93394 12.9913 3.21964C13.277 3.50534 13.4375 3.89283 13.4375 4.29688V8.08594Z" fill="#2EB67D"/>
<path d="M11.9141 14.1797C12.3181 14.1797 12.7056 14.3402 12.9913 14.6259C13.277 14.9116 13.4375 15.2991 13.4375 15.7031C13.4375 16.1072 13.277 16.4947 12.9913 16.7804C12.7056 17.0661 12.3181 17.2266 11.9141 17.2266C11.0547 17.2266 10.3906 16.5625 10.3906 15.7031V14.1797H11.9141ZM11.9141 13.4375C11.51 13.4375 11.1225 13.277 10.8368 12.9913C10.5511 12.7056 10.3906 12.3181 10.3906 11.9141C10.3906 11.51 10.5511 11.1225 10.8368 10.8368C11.1225 10.5511 11.51 10.3906 11.9141 10.3906H15.7031C16.1072 10.3906 16.4947 10.5511 16.7804 10.8368C17.0661 11.1225 17.2266 11.51 17.2266 11.9141C17.2266 12.3181 17.0661 12.7056 16.7804 12.9913C16.4947 13.277 16.1072 13.4375 15.7031 13.4375H11.9141Z" fill="#ECB22E"/>
</g>
</g>
<defs>
<clipPath id="clip0_836_5">
<rect width="20" height="20" fill="white"/>
</clipPath>
<clipPath id="clip1_836_5">
<rect width="20" height="20" fill="white"/>
</clipPath>
</defs>
</svg>
