<svg width="18" height="18" viewBox="0 0 20 20" fill="none" xmlns="http://www.w3.org/2000/svg">
<path d="M8.05759 7.88896V7.1184C7.7902 7.08043 7.52039 7.06089 7.25037 7.05957C3.94708 7.05957 1.25958 9.74751 1.25958 13.0508C1.25958 15.0771 2.27228 16.8709 3.81712 17.9556C2.78269 16.8493 2.20752 15.3912 2.2084 13.8767C2.2084 10.6204 4.8195 7.96492 8.05759 7.88896Z" fill="#00F2EA"/>
<path d="M8.19894 16.6129C9.67288 16.6129 10.875 15.4403 10.9299 13.9791L10.935 0.935252H13.318C13.267 0.662813 13.2414 0.386423 13.2411 0.109375H9.98637L9.98088 13.1537C9.92665 14.6145 8.72384 15.7865 7.25035 15.7865C6.80799 15.7868 6.37222 15.679 5.98102 15.4724C6.49362 16.1876 7.31906 16.612 8.19894 16.6129ZM17.7692 5.36298V4.63809C16.8935 4.63896 16.0364 4.38409 15.3034 3.90507C15.9462 4.64511 16.8114 5.15662 17.7696 5.36298" fill="#00F2EA"/>
<path d="M15.3034 3.90405C14.5851 3.08212 14.1893 2.02728 14.1897 0.935547H13.3178C13.5459 2.15482 14.2635 3.22767 15.3034 3.90405ZM7.25036 10.3144C5.73999 10.3161 4.5161 11.54 4.51434 13.0504C4.51522 14.0672 5.07986 14.9998 5.98059 15.4722C5.64405 15.0082 5.46294 14.4499 5.46294 13.8767C5.46447 12.3663 6.68836 11.142 8.19896 11.1402C8.48083 11.1402 8.75108 11.1868 9.00617 11.2669V7.94408C8.73878 7.9061 8.46898 7.88657 8.19896 7.88525C8.15154 7.88525 8.10478 7.88788 8.0578 7.88876V10.441C7.79655 10.358 7.52434 10.3152 7.25036 10.3144Z" fill="#FF004F"/>
<path d="M17.7692 5.36296V7.89262C16.0812 7.89262 14.5179 7.35279 13.2409 6.43647V13.0509C13.2409 16.3542 10.5539 19.0417 7.25057 19.0417C5.974 19.0417 4.79028 18.6389 3.81732 17.9557C4.94813 19.1752 6.536 19.8681 8.19895 19.8676C11.5022 19.8676 14.1897 17.1801 14.1897 13.8773V7.26279C15.5089 8.21138 17.0933 8.72091 18.718 8.71894V5.46329C18.3922 5.46329 18.0754 5.42794 17.769 5.3623" fill="#FF004F"/>
<path d="M13.2407 13.0504V6.4359C14.5599 7.38472 16.1442 7.89403 17.769 7.89205V5.36261C16.8109 5.15604 15.9458 4.64431 15.3032 3.90405C14.2633 3.22767 13.5456 2.15482 13.3175 0.935547H10.9347L10.9297 13.9794C10.875 15.4402 9.67266 16.6127 8.19872 16.6127C7.31906 16.6118 6.4934 16.1873 5.98102 15.4725C5.08028 15.0003 4.51543 14.0677 4.51433 13.0506C4.51609 11.5402 5.73997 10.3163 7.25035 10.3146C7.53179 10.3146 7.80203 10.3607 8.05756 10.4412V7.88898C4.81948 7.96494 2.20837 10.6204 2.20837 13.8767C2.20837 15.4514 2.82021 16.8849 3.8171 17.9556C4.82211 18.6631 6.02141 19.0423 7.25035 19.0412C10.5539 19.0412 13.2407 16.3537 13.2407 13.0504Z" fill="black"/>
</svg>
