<svg width="18" height="18" viewBox="0 0 20 20" fill="none" xmlns="http://www.w3.org/2000/svg">
<g clip-path="url(#clip0_837_13)">
<path d="M19.5467 3.70226C19.2326 3.84159 18.9095 3.95921 18.5794 4.05472C18.9702 3.61277 19.2681 3.09277 19.45 2.52375C19.4908 2.39621 19.4485 2.2566 19.3437 2.17316C19.239 2.08969 19.0935 2.07969 18.9782 2.14801C18.2772 2.56375 17.521 2.86254 16.728 3.03722C15.9293 2.25672 14.8444 1.8125 13.7228 1.8125C11.3554 1.8125 9.42935 3.73851 9.42935 6.10584C9.42935 6.29229 9.44115 6.47772 9.46451 6.66057C6.52679 6.40264 3.79563 4.9587 1.92017 2.65812C1.85333 2.57613 1.75036 2.53191 1.64493 2.54039C1.53946 2.54863 1.44466 2.60812 1.39138 2.69957C1.01099 3.35226 0.809896 4.09878 0.809896 4.85835C0.809896 5.89287 1.17923 6.87439 1.83169 7.64138C1.63329 7.57267 1.44079 7.48681 1.25704 7.38482C1.15841 7.3299 1.03802 7.33076 0.940013 7.38693C0.841967 7.44314 0.780483 7.54646 0.777865 7.65943C0.777397 7.67845 0.777397 7.69748 0.777397 7.71677C0.777397 9.26095 1.60849 10.6512 2.87915 11.4089C2.76997 11.398 2.66091 11.3822 2.55251 11.3615C2.44075 11.3402 2.32587 11.3793 2.25052 11.4646C2.17505 11.5497 2.15005 11.6684 2.18485 11.7768C2.65516 13.2452 3.86606 14.3253 5.32992 14.6546C4.11578 15.415 2.72735 15.8133 1.26982 15.8133C0.965677 15.8133 0.659819 15.7955 0.360484 15.7601C0.211774 15.7424 0.0695869 15.8302 0.018923 15.9716C-0.0317408 16.1131 0.0219699 16.2708 0.148454 16.3519C2.02091 17.5525 4.18598 18.1871 6.40952 18.1871C10.7807 18.1871 13.5152 16.1258 15.0394 14.3966C16.9401 12.2404 18.0301 9.38641 18.0301 6.5665C18.0301 6.44869 18.0283 6.32975 18.0247 6.21115C18.7746 5.6462 19.4201 4.96245 19.9455 4.17659C20.0253 4.05726 20.0167 3.89948 19.9242 3.78964C19.832 3.6796 19.6781 3.64406 19.5467 3.70226Z" fill="#73A1FB"/>
</g>
<defs>
<clipPath id="clip0_837_13">
<rect width="20" height="20" fill="white"/>
</clipPath>
</defs>
</svg>
