<svg width="15" height="18" viewBox="0 0 15 18" fill="none" xmlns="http://www.w3.org/2000/svg">
<g clip-path="url(#clip0_953_2)">
<path fill-rule="evenodd" clip-rule="evenodd" d="M9.29991 0.396781C10.9977 -0.487985 13.0997 0.156546 13.9933 1.83672C14.8868 3.5169 14.235 5.59551 12.5372 6.48028L11.1412 7.21416C12.3439 7.25811 13.4908 7.91875 14.0914 9.04815C14.985 10.7283 14.3346 12.8069 12.6354 13.6917L5.19102 17.6028C3.49327 18.4876 1.39122 17.8431 0.497661 16.1629C-0.395893 14.4827 0.255962 12.4041 1.95372 11.5193L3.34971 10.7855C2.14708 10.7415 1.0001 10.0809 0.399517 8.95147C-0.494038 7.27129 0.157818 5.19268 1.85557 4.30791L9.29991 0.396781ZM5.28184 6.22979L9.7877 9.01153L5.28184 11.7801V6.22979Z" fill="#F40407"/>
</g>
<defs>
<clipPath id="clip0_953_2">
<rect width="14.4932" height="18" fill="white"/>
</clipPath>
</defs>
</svg>
