<svg width="55" height="60" viewBox="0 0 55 60" fill="none" xmlns="http://www.w3.org/2000/svg">
<path fill="white" d="M54.661 44.0911L46.8747 37.5166C47.127 37.0461 47.2867 36.5256 47.3329 35.977C47.4217 34.9193 47.0946 33.8912 46.4127 33.0855C45.9136 32.4916 45.2641 32.0667 44.5353 31.8477C45.6168 30.4016 45.6044 28.3461 44.3935 26.9077C43.8675 26.283 43.175 25.8462 42.3983 25.6387C43.2637 24.2212 43.1758 22.3477 42.0464 21.0056C41.4209 20.2653 40.5601 19.7878 39.6037 19.6465C40.0418 18.3686 39.8197 16.8977 38.8881 15.7931C38.2079 14.9848 37.2489 14.4912 36.19 14.4016C35.1255 14.309 34.102 14.6377 33.2938 15.3187L33.1465 15.443L28.6838 13.3611C26.3483 12.1484 24.3035 13.1019 23.3146 14.5813C22.9854 15.0728 22.7839 15.6039 22.6784 16.1394L21.7058 15.3179C20.0312 13.9081 17.5223 14.1232 16.1115 15.7931C15.1799 16.8976 14.9582 18.3686 15.3972 19.6466C14.4408 19.7883 13.5817 20.2644 12.9544 21.0064C12.2734 21.8147 11.9472 22.842 12.0364 23.8996C12.0898 24.5269 12.2841 25.1182 12.6018 25.6382C11.849 25.8411 11.147 26.2667 10.6065 26.9064C9.39474 28.3449 9.38327 30.4004 10.466 31.8465C9.75724 32.0617 9.10014 32.475 8.58859 33.0822C7.51091 34.358 7.38624 36.1218 8.13045 37.515L0.34026 44.0895C-0.0645087 44.4298 -0.114899 45.0336 0.225401 45.437C0.414981 45.6608 0.684397 45.7765 0.958086 45.7765C1.17627 45.7765 1.39403 45.7031 1.57421 45.5519L9.39129 38.9555L12.5266 41.599C13.2469 42.2061 14.141 42.5315 15.0756 42.5315C15.1896 42.5315 15.304 42.5259 15.4189 42.5161C16.4757 42.426 17.4343 41.9329 18.1123 41.1263C18.795 40.3202 19.1221 39.2937 19.0333 38.2349C18.9863 37.6742 18.8198 37.1474 18.5606 36.6692C19.3505 36.4779 20.0918 36.0522 20.654 35.3857C21.4286 34.4664 21.6954 33.2977 21.5165 32.195H21.5195C22.6347 32.195 23.7338 31.7321 24.4862 30.8436C25.189 30.137 25.5527 29.1745 25.5075 28.1361C25.5058 28.1015 25.4942 28.0691 25.4921 28.0358C25.6488 28.055 25.8038 28.0806 25.9635 28.0806C26.0775 28.0806 26.1932 28.0759 26.3076 28.0653C27.3665 27.9752 28.3238 27.4807 28.9471 26.7348C29.6538 26.032 30.0193 25.0726 29.9761 24.0329C29.9369 23.088 29.5543 22.1995 28.9326 21.5014L34.5247 16.7795C34.9427 16.4285 35.4726 16.2551 36.0254 16.3068C36.5754 16.3529 37.072 16.6083 37.4229 17.025C38.1526 17.8905 38.0416 19.1923 37.1761 19.9229L36.4533 20.5352L36.4524 20.536C36.0498 20.8763 35.999 21.4801 36.3414 21.8835C36.6808 22.2862 37.2846 22.3361 37.688 21.9954L37.6927 21.9907C38.1077 21.6436 38.6406 21.4792 39.182 21.521C39.7328 21.5671 40.2311 21.8212 40.5821 22.2384C41.3127 23.106 41.2021 24.4057 40.3353 25.1363L38.8012 26.4343C38.8012 26.4343 38.8004 26.4351 38.7995 26.4351C38.3969 26.7767 38.3461 27.38 38.6876 27.7826C39.0279 28.1861 39.6317 28.2369 40.0352 27.8953H40.036C40.4532 27.5414 40.9993 27.3778 41.5329 27.4201C42.082 27.4671 42.5773 27.7216 42.9283 28.1383C43.658 29.0046 43.547 30.3056 42.6824 31.0362L40.8213 32.6066L40.8204 32.6074C40.4169 32.9477 40.3652 33.5515 40.7055 33.9549C41.0459 34.3584 41.6487 34.411 42.0531 34.0698L42.0561 34.0681C42.4732 33.7171 42.9992 33.5536 43.5518 33.5954C44.1009 33.6424 44.5962 33.8969 44.9479 34.3157C45.3011 34.7337 45.4693 35.2653 45.4232 35.8136C45.3762 36.3626 45.1217 36.8601 44.705 37.2119L36.0135 44.5512C32.4662 47.5456 29.5405 47.2292 25.1457 46.3552C24.8588 46.295 24.565 46.3744 24.3413 46.5627L11.253 57.6113C10.8496 57.9507 10.7987 58.5545 11.1403 58.9588C11.3286 59.1825 11.598 59.2982 11.8709 59.2982C12.0891 59.2982 12.3068 59.2248 12.4879 59.0724L25.2252 48.3195C27.0407 48.6696 28.7017 48.9134 30.3066 48.854L42.5215 59.0754C42.7025 59.2257 42.9194 59.2983 43.1355 59.2983C43.4091 59.2983 43.6807 59.1817 43.8699 58.9558C44.2085 58.5502 44.1559 57.9477 43.7503 57.6092L32.8317 48.4724C34.2808 48.062 35.7265 47.2969 37.2466 46.0143L45.6136 38.9538L53.4268 45.5514C53.6065 45.7034 53.8256 45.7773 54.0437 45.7773C54.3162 45.7773 54.586 45.6624 54.7756 45.4387C55.1146 45.0352 55.0642 44.4314 54.6603 44.0911L54.661 44.0911ZM25.0064 18.1016C24.2823 17.4906 24.4142 16.3792 24.9069 15.6435C25.1499 15.2802 26.0777 14.1641 27.8411 15.0752L31.5387 16.8006L27.5016 20.2096L25.0149 18.1111L25.0081 18.1055C25.0072 18.1047 25.0081 18.1029 25.0064 18.1016ZM16.6531 39.8905C16.3021 40.3085 15.8068 40.563 15.2586 40.6087C14.7048 40.6582 14.177 40.4862 13.7608 40.1352L10.2955 37.2142C9.42997 36.4798 9.31981 35.1802 10.0516 34.3154C10.7766 33.4547 12.061 33.3407 12.9286 34.058L16.4118 36.9951C16.8289 37.3461 17.083 37.8427 17.1291 38.3926C17.1752 38.9425 17.0057 39.4737 16.653 39.8904L16.6531 39.8905ZM19.194 34.1511C18.4634 35.0166 17.1646 35.1276 16.2978 34.3988L14.1852 32.617C14.1822 32.6153 14.1813 32.6114 14.1784 32.6084L14.1775 32.6076L12.3171 31.0381C11.4516 30.3054 11.3406 29.0056 12.0695 28.1402C12.4226 27.7222 12.9196 27.4677 13.4687 27.4211C14.0186 27.3763 14.5502 27.5437 14.9674 27.8964L14.9682 27.8972C14.97 27.8989 14.9738 27.8989 14.9759 27.9011L18.9459 31.2554C19.8131 31.986 19.9228 33.2865 19.194 34.1511ZM23.0811 29.5488C22.3484 30.4143 21.0496 30.5253 20.1823 29.7935L16.1902 26.4221C16.1893 26.4212 16.1872 26.4212 16.1863 26.4204L14.6628 25.1347C14.2457 24.7837 13.9916 24.2872 13.9447 23.7372C13.8977 23.1881 14.0672 22.6544 14.4182 22.2385C14.77 21.8214 15.2666 21.5673 15.8157 21.5212C16.3549 21.4704 16.8916 21.6408 17.3075 21.9879L17.316 21.9956L22.8337 26.6513C23.2889 27.0356 23.5749 27.621 23.6006 28.2162C23.6202 28.7157 23.4558 29.1692 23.0809 29.5487L23.0811 29.5488ZM27.5456 25.44C27.1946 25.8572 26.6993 26.1112 26.1502 26.1582C25.5985 26.209 25.0695 26.0369 24.6545 25.6868C24.6075 25.6475 24.5656 25.6467 24.5264 25.6685C24.3829 25.5011 24.2365 25.3337 24.0674 25.1902L18.5488 20.5333C18.5449 20.5295 18.5411 20.5277 18.5372 20.5239L17.8229 19.9223C16.9574 19.1905 16.8464 17.8899 17.5753 17.0253C18.3071 16.1606 19.6077 16.0488 20.4732 16.7776L21.7806 17.8822C21.7814 17.8822 21.7814 17.883 21.7823 17.8839L23.8595 19.6379L24.5021 20.1801H24.503L27.3035 22.5456C27.7586 22.929 28.0438 23.5144 28.0695 24.1113C28.09 24.6079 27.9235 25.0575 27.5456 25.44Z" fill="black"/>
<path fill="white" d="M31.3319 6.9434C31.8609 6.9434 32.2883 6.516 32.2883 5.98698V0.956422C32.2883 0.427406 31.8609 0 31.3319 0C30.8029 0 30.3755 0.427406 30.3755 0.956422V5.98698C30.3755 6.516 30.8029 6.9434 31.3319 6.9434Z" fill="black"/>
<path fill="white" d="M44.0024 9.69304C44.297 9.69304 44.5869 9.55726 44.7752 9.30278L47.7508 5.24734C48.0625 4.82165 47.9707 4.22302 47.545 3.91009C47.1163 3.59627 46.5199 3.69106 46.2078 4.11589L43.2322 8.17134C42.9205 8.59703 43.0123 9.19565 43.438 9.50858C43.6083 9.63283 43.8064 9.69304 44.0024 9.69304Z" fill="black"/>
<path fill="white" d="M17.8884 9.30362C18.075 9.55894 18.3657 9.69387 18.6604 9.69387C18.8563 9.69387 19.0545 9.63367 19.2257 9.50814C19.6514 9.19644 19.7432 8.59783 19.4302 8.1721L16.4529 4.11665C16.1412 3.69181 15.5435 3.59915 15.1169 3.91213C14.6912 4.22382 14.5994 4.82243 14.9124 5.24817L17.8884 9.30362Z" fill="black"/>
</svg>
