<svg width="50" height="50" viewBox="0 0 50 50" fill="none" xmlns="http://www.w3.org/2000/svg">
<g clip-path="url(#clip0_1594_24)">
<path d="M7.85596 46.5996H2C1.44775 46.5996 1 46.1523 1 45.5996V31.3086C1 30.7559 1.44775 30.3086 2 30.3086H7.85596C8.4082 30.3086 8.85596 30.7559 8.85596 31.3086V45.5996C8.85596 46.1523 8.4082 46.5996 7.85596 46.5996ZM3 44.5996H6.85596V32.3086H3V44.5996Z" fill="#FF632D"/>
<path d="M21.2368 46.6006H15.3809C14.8286 46.6006 14.3809 46.1533 14.3809 45.6006V25.1719C14.3809 24.6191 14.8286 24.1719 15.3809 24.1719H21.2368C21.7891 24.1719 22.2368 24.6191 22.2368 25.1719V45.6006C22.2368 46.1533 21.7891 46.6006 21.2368 46.6006ZM16.3809 44.6006H20.2368V26.1719H16.3809V44.6006Z" fill="#FF632D"/>
<path d="M34.6187 46.5996H28.7627C28.2104 46.5996 27.7627 46.1523 27.7627 45.5996V18.7266C27.7627 18.1738 28.2104 17.7266 28.7627 17.7266H34.6187C35.1709 17.7266 35.6187 18.1738 35.6187 18.7266V45.5996C35.6187 46.1523 35.1709 46.5996 34.6187 46.5996ZM29.7627 44.5996H33.6187V19.7266H29.7627V44.5996Z" fill="#FF632D"/>
<path d="M48.0005 46.6006H42.1445C41.5923 46.6006 41.1445 46.1533 41.1445 45.6006V12.207C41.1445 11.6543 41.5923 11.207 42.1445 11.207H48.0005C48.5527 11.207 49.0005 11.6543 49.0005 12.207V45.6006C49.0005 46.1533 48.5527 46.6006 48.0005 46.6006ZM43.1445 44.6006H47.0005V13.207H43.1445V44.6006Z" fill="#FF632D"/>
<path d="M6.97374 28.4008C6.65293 28.4008 6.33751 28.2465 6.14415 27.9614C5.83506 27.5034 5.95518 26.8813 6.4127 26.5727L19.2428 17.8979C19.294 17.8627 19.3482 17.8334 19.4054 17.808L31.1876 12.7026L43.4654 3.59515C43.9098 3.26605 44.5353 3.3598 44.8644 3.80219C45.1935 4.24555 45.1007 4.87152 44.6568 5.20062L32.2867 14.3774C32.2252 14.4233 32.1588 14.4614 32.0885 14.4926L20.2857 19.6069L7.53282 28.2289C7.36143 28.3452 7.16661 28.4008 6.97374 28.4008Z" fill="#FF632D"/>
<path d="M44.061 10.1689C43.5088 10.1689 43.061 9.72168 43.061 9.16895V5.39844H39.291C38.7388 5.39844 38.291 4.95117 38.291 4.39844C38.291 3.8457 38.7388 3.39844 39.291 3.39844H44.061C44.6133 3.39844 45.061 3.8457 45.061 4.39844V9.16895C45.061 9.72168 44.6133 10.1689 44.061 10.1689Z" fill="#FF632D"/>
</g>
<defs>
<clipPath id="clip0_1594_24">
<rect width="48" height="44" fill="white" transform="translate(1 3)"/>
</clipPath>
</defs>
</svg>
