<svg width="50" height="50" viewBox="0 0 50 50" fill="none" xmlns="http://www.w3.org/2000/svg">
<g clip-path="url(#clip0_1594_25)">
<path d="M14.6957 0C17.4011 0 19.5942 2.19314 19.5942 4.89853L19.5925 7.34749L29.6997 7.34863C30.7467 3.27918 34.3427 0.232816 38.6842 0.0127411L39.1884 0C44.5992 0 48.9854 4.38631 48.9854 9.7971C48.9854 14.3615 45.8641 18.1969 41.6394 19.2851L41.6376 30.825L50 39.1884L39.1884 50L30.825 41.6375L19.2851 41.6394C18.2373 45.7076 14.642 48.7527 10.3013 48.9727L9.79706 48.9855C4.38627 48.9855 0 44.5992 0 39.1884C0 34.623 3.12266 30.787 7.34863 29.6997L7.34749 19.5925L4.89853 19.5942C2.31611 19.5942 0.200428 17.5959 0.0134277 15.0612L0 14.6956V4.89853C0 2.19314 2.19314 0 4.89853 0H14.6957ZM9.79706 34.2898C7.09167 34.2898 4.89853 36.483 4.89853 39.1884C4.89853 41.8938 7.09167 44.0869 9.79706 44.0869C12.5025 44.0869 14.6957 41.8938 14.6957 39.1884C14.6957 36.483 12.5025 34.2898 9.79706 34.2898ZM39.1884 35.3063L35.3062 39.1884L39.1884 43.0705L43.0705 39.1884L39.1884 35.3063ZM19.5925 12.245L19.5942 14.6956C19.5942 17.401 17.4011 19.5942 14.6957 19.5942L12.245 19.5925L12.2456 29.6997C15.6889 30.5857 18.3998 33.2965 19.2857 36.7399L30.825 36.7375L36.7375 30.825L36.74 19.2857C33.2966 18.3998 30.5857 15.6889 29.6997 12.2456L19.5925 12.245ZM14.6957 4.89853H4.89853V14.6956H14.6957V4.89853ZM39.1884 4.89853C36.483 4.89853 34.2899 7.0917 34.2899 9.7971C34.2899 12.5025 36.483 14.6956 39.1884 14.6956C41.8938 14.6956 44.0869 12.5025 44.0869 9.7971C44.0869 7.0917 41.8938 4.89853 39.1884 4.89853Z" fill="#FF623D"/>
</g>
<defs>
<clipPath id="clip0_1594_25">
<rect width="50" height="50" fill="white"/>
</clipPath>
</defs>
</svg>
