<svg width="15" height="15" viewBox="0 0 15 15" fill="none" xmlns="http://www.w3.org/2000/svg">
<path d="M9.27548 4.57764e-05C9.16931 4.57764e-05 9.0569 0.0413582 8.97466 0.124008L6.96366 2.13704L6.52577 2.57289C6.36316 2.73552 6.36327 3.01038 6.52577 3.17302L6.96366 3.60889L8.97466 5.6219C8.97549 5.62191 8.97633 5.62191 8.97716 5.6219C9.13972 5.78422 9.41275 5.7843 9.57528 5.6219L10.0112 5.18402C10.1738 5.0214 10.1736 4.74855 10.0112 4.58591L9.24575 3.82051H12.1043V10.8956H9.35055L10.0112 10.2325C10.1744 10.0693 10.1743 9.79605 10.0112 9.63283L9.57528 9.19646C9.49347 9.11466 9.38251 9.07303 9.27596 9.07303C9.16939 9.07303 9.05721 9.11422 8.97515 9.19646L6.96414 11.2095L6.52626 11.6479C6.36504 11.8106 6.36417 12.0834 6.52626 12.2455L6.96414 12.6818L8.97515 14.6949C8.97598 14.6949 8.97681 14.6949 8.97765 14.6949C9.14021 14.8572 9.41324 14.8573 9.57577 14.6949L10.0116 14.2585C10.1743 14.0959 10.1741 13.8215 10.0116 13.6589L9.34701 12.9943H12.6379H13.6683C13.9596 12.9943 14.2014 12.7518 14.2014 12.4606V11.4287V3.2869V2.25696C14.2014 1.96575 13.9596 1.72333 13.6683 1.72333H12.6379H9.4483L10.0116 1.15999C10.1748 0.996808 10.1747 0.72305 10.0116 0.55986L9.57577 0.124008C9.5434 0.0916082 9.49675 0.0938967 9.45735 0.0740967C9.40911 0.0266248 9.34316 6.16442e-05 9.27548 4.57764e-05ZM0.816256 0.380981C0.368746 0.380981 0.000955606 0.74827 0.000955606 1.19577V5.39365C-0.000318535 5.40842 -0.000318535 5.42328 0.000955606 5.43805V5.60283C0.000955606 6.05034 0.368746 6.41811 0.816256 6.41811H5.22274C5.60841 6.41811 5.93353 6.14461 6.01634 5.78271C6.03546 5.75043 6.04731 5.71435 6.05105 5.67702C6.05479 5.63968 6.05035 5.60198 6.03803 5.56654V1.19585C6.03803 0.748337 5.67026 0.381058 5.22275 0.381058L0.816256 0.380981ZM9.27548 0.552307L9.58034 0.860687L8.6416 1.79993C8.60571 1.83604 8.5813 1.88197 8.57146 1.93192C8.56161 1.98186 8.56677 2.0336 8.58627 2.08063C8.60577 2.12766 8.63875 2.16787 8.68105 2.1962C8.72335 2.22452 8.77308 2.2397 8.82399 2.23982H12.6369H13.6674C13.6813 2.23982 13.6844 2.24282 13.6844 2.25702V3.28696V11.4287V12.4607C13.6844 12.4745 13.6816 12.4779 13.6674 12.4779H12.6369H8.72322C8.67217 12.4778 8.62223 12.4929 8.57974 12.5212C8.53726 12.5495 8.50413 12.5898 8.48454 12.6369C8.46496 12.6841 8.4598 12.736 8.46973 12.7861C8.47966 12.8362 8.50422 12.8822 8.54031 12.9183L9.58034 13.9598L9.27548 14.2647L7.32747 12.3182L6.95609 11.9448L7.32747 11.5734L9.27548 9.6254L9.58034 9.93378L8.54235 10.9718C8.50643 11.0079 8.48202 11.0539 8.47219 11.1039C8.46235 11.1539 8.46754 11.2057 8.4871 11.2527C8.50666 11.2998 8.53972 11.34 8.58209 11.3683C8.62447 11.3965 8.67428 11.4117 8.72524 11.4117H12.3608C12.4292 11.4119 12.4949 11.385 12.5435 11.3368C12.5921 11.2886 12.6195 11.2231 12.6198 11.1547V3.56364C12.6199 3.5296 12.6133 3.49587 12.6003 3.46439C12.5873 3.43291 12.5683 3.40431 12.5442 3.38023C12.5201 3.35616 12.4915 3.33708 12.46 3.32411C12.4286 3.31114 12.3948 3.30453 12.3608 3.30466H8.62245C8.57136 3.30477 8.52145 3.32006 8.47905 3.34857C8.43665 3.37709 8.40369 3.41755 8.38431 3.46483C8.36493 3.51211 8.36003 3.56407 8.37022 3.61414C8.38041 3.6642 8.40524 3.71012 8.44155 3.74606L9.58034 4.88686L9.27548 5.19171L7.32747 3.24521L6.95609 2.87231L7.32747 2.50096L9.27548 0.552307ZM0.816256 0.896957H5.22274C5.39333 0.896957 5.52204 1.02519 5.52204 1.19577V5.16034L4.55457 4.51537C4.51407 4.48871 4.46687 4.47399 4.41838 4.47293C4.3699 4.47187 4.3221 4.48451 4.28047 4.50937L3.06156 5.22891L1.83511 3.99489C1.81066 3.97029 1.78151 3.95088 1.74939 3.93781C1.71727 3.92473 1.68285 3.91826 1.64817 3.91879C1.58643 3.91974 1.52708 3.94281 1.48089 3.9838L0.516939 4.8394V1.1953C0.516939 1.02472 0.645673 0.896957 0.816256 0.896957ZM2.89176 2.02466C2.2983 2.02466 1.81194 2.51103 1.81194 3.10448C1.81194 3.69795 2.2983 4.18433 2.89176 4.18433C3.48521 4.18433 3.9716 3.69795 3.9716 3.10448C3.9716 2.51103 3.48521 2.02466 2.89176 2.02466ZM2.89176 2.54065C3.20635 2.54065 3.45562 2.78989 3.45562 3.10448C3.45562 3.41908 3.20635 3.66785 2.89176 3.66785C2.57716 3.66785 2.32841 3.41908 2.32841 3.10448C2.32841 2.78989 2.57716 2.54065 2.89176 2.54065ZM1.64061 4.53252L2.83683 5.73628C2.87731 5.77683 2.93013 5.80275 2.98697 5.80995C3.04381 5.81716 3.10143 5.80524 3.15075 5.77608L4.40391 5.03535L5.48022 5.75089C5.42996 5.84169 5.33768 5.90356 5.22274 5.90356H0.816256C0.645673 5.90356 0.516939 5.77332 0.516939 5.60274V5.53075L1.64061 4.53252ZM0.816256 8.3968C0.368746 8.3968 0.000955606 8.76608 0.000955606 9.21361V13.4095C-0.000318535 13.4242 -0.000318535 13.4391 0.000955606 13.4539V13.6207C0.000955606 14.0681 0.368746 14.4359 0.816256 14.4359H5.22274C5.62946 14.4359 5.9672 14.1314 6.02592 13.7401C6.03764 13.7044 6.04143 13.6665 6.03702 13.6292C6.03705 13.6262 6.03702 13.6232 6.03702 13.6202V9.21323C6.03702 8.76571 5.66925 8.39642 5.22174 8.39642L0.816256 8.3968ZM0.816256 8.91278H5.22274C5.39333 8.91278 5.52204 9.04303 5.52204 9.21361V13.1767L4.55457 12.5332C4.51426 12.5062 4.46716 12.4912 4.41867 12.4898C4.37019 12.4884 4.32229 12.5006 4.28047 12.5252L3.06156 13.2468L1.83511 12.0107C1.81066 11.9861 1.78151 11.9667 1.74939 11.9537C1.71727 11.9406 1.68285 11.9341 1.64817 11.9346C1.58617 11.9361 1.52679 11.9599 1.48089 12.0016L0.516939 12.8562V9.21313C0.516939 9.04255 0.645673 8.91278 0.816256 8.91278ZM2.89176 10.0405C2.2983 10.0405 1.81194 10.5269 1.81194 11.1203C1.81194 11.7138 2.2983 12.2001 2.89176 12.2001C3.48521 12.2001 3.9716 11.7138 3.9716 11.1203C3.9716 10.5269 3.48521 10.0405 2.89176 10.0405ZM2.89176 10.5565C3.20635 10.5565 3.45562 10.8057 3.45562 11.1203C3.45562 11.4349 3.20635 11.6857 2.89176 11.6857C2.57716 11.6857 2.32841 11.4349 2.32841 11.1203C2.32841 10.8057 2.57716 10.5565 2.89176 10.5565ZM1.64061 12.5483L2.83683 13.7521C2.87707 13.793 2.92978 13.8193 2.98663 13.8268C3.04348 13.8344 3.10122 13.8228 3.15075 13.7939L4.40391 13.0532L5.47973 13.7687C5.42937 13.8587 5.33747 13.9199 5.22274 13.9199H0.816256C0.645673 13.9199 0.516939 13.7912 0.516939 13.6206V13.5465L1.64061 12.5483Z" fill="#363636"/>
</svg>
