<svg width="24" height="24" viewBox="0 0 24 24" fill="none" xmlns="http://www.w3.org/2000/svg">
<path d="M17 8C17.552 8 18 8.449 18 9C18 9.551 17.552 10 17 10C16.448 10 16 9.551 16 9C16 8.449 16.448 8 17 8ZM17 6C15.343 6 14 7.343 14 9C14 10.657 15.343 12 17 12C18.657 12 20 10.657 20 9C20 7.343 18.657 6 17 6ZM7 12C5.343 12 4 13.343 4 15C4 16.657 5.343 18 7 18C8.657 18 10 16.657 10 15C10 13.343 8.657 12 7 12ZM17 4C17.343 4 17.677 4.035 18 4.101V2C18 1.448 17.553 1 17 1C16.447 1 16 1.448 16 2V4.101C16.323 4.035 16.657 4 17 4ZM7 10C7.343 10 7.677 10.035 8 10.101V2C8 1.448 7.553 1 7 1C6.447 1 6 1.448 6 2V10.101C6.323 10.035 6.657 10 7 10ZM17 14C16.657 14 16.323 13.965 16 13.899V22C16 22.552 16.447 23 17 23C17.553 23 18 22.552 18 22V13.899C17.677 13.965 17.343 14 17 14ZM7 20C6.657 20 6.323 19.965 6 19.899V22C6 22.552 6.447 23 7 23C7.553 23 8 22.552 8 22V19.899C7.677 19.965 7.343 20 7 20Z" fill="white"/>
</svg>