<svg width="50" height="50" viewBox="0 0 50 50" fill="none" xmlns="http://www.w3.org/2000/svg">
<g clip-path="url(#clip0_1594_39)">
<path d="M23.0999 28.5161H16.9996V24.183H22.9998V26.633C22.9998 27.0932 23.3729 27.4663 23.8331 27.4663C24.2933 27.4663 24.6664 27.0932 24.6664 26.633V24.076C25.3946 23.6698 25.1066 22.5039 24.2579 22.5164C24.2579 22.5163 23.8331 22.5163 23.8331 22.5163H16.1763C12.571 22.511 5.25696 22.5159 1.66634 22.5143V9.51626H23.8331H24.3413C25.2402 9.5238 25.4787 8.2668 24.6664 7.91551V3.45018C25.4856 3.12166 25.2383 1.83603 24.3413 1.84944C24.3413 1.84943 23.8411 1.84943 23.8411 1.84943C17.0072 1.84697 7.66662 1.84778 0.832992 1.8478C0.372799 1.8478 -0.000329243 2.22093 -0.000329243 2.68113V8.68089C-0.00234408 8.68093 0.00112305 23.3468 -0.000333614 23.3476C-0.00032928 23.3495 -0.000329243 29.3458 -0.000329243 29.3478C-0.000329243 29.808 0.372799 30.1811 0.833004 30.1811C4.65158 30.1736 12.3404 30.1865 16.1582 30.1811C16.1572 30.1868 23.0974 30.1805 23.0998 30.1828C24.1937 30.1648 24.1962 28.5346 23.0999 28.5161ZM22.9998 7.84756H16.9996V3.51447H22.9998V7.84756ZM15.3329 7.84756H9.33317V3.51447H15.3329V7.84756ZM1.66634 3.51447H7.6665V7.84756H1.66634V3.51447ZM1.66634 24.183H7.6665V28.5145H1.66634V24.183ZM9.33317 24.183H15.3329V28.5145H9.33317V24.183Z" fill="#FF623D"/>
<path d="M45.3548 25.5374C43.4333 24.0319 40.6513 24.1762 38.7418 25.6159C37.4772 26.3638 35.9594 26.7337 34.388 26.6767L32.5285 26.5542C32.4937 26.5238 32.4633 26.4916 32.427 26.4621L32.4991 13.0691C32.5321 11.9985 32.0707 10.9943 31.2304 10.3111L28.4053 8.03614C28.4055 8.03624 28.4052 8.03604 28.4053 8.03614C27.7768 7.36098 26.7612 7.73201 26.8412 8.68029C26.8412 8.68027 26.7369 26.8025 26.7369 26.8025C26.1244 27.477 25.7248 28.322 25.6254 29.2288C25.6237 29.24 25.6239 29.251 25.6224 29.2625C25.6213 29.2711 25.6181 29.2792 25.6201 29.2877C25.61 29.3665 25.5994 29.4499 25.5997 29.5148C25.5641 30.6236 25.9639 31.6826 26.698 32.4757L26.6919 33.8072C26.6373 35.5459 26.0571 37.215 25.0679 38.4931C20.8472 44.2474 29.0401 50.5712 33.5514 45.0499C33.5518 45.0495 33.5522 45.0491 33.5526 45.0487C34.7082 43.5407 34.9503 41.4293 34.1674 39.6662C33.1186 37.9428 32.2628 36.1988 32.3995 33.9915V32.8842C32.6189 32.7073 32.817 32.5078 32.9934 32.2933L34.1699 32.3664C35.9139 32.4282 37.5793 33.0162 38.8537 34.0172C39.8313 34.7781 40.964 35.1551 42.1696 35.1585C47.2669 35.19 49.4364 28.5727 45.3548 25.5374ZM28.0883 31.5119C27.5415 31.0232 27.2416 30.3148 27.266 29.5421C27.2664 29.5402 27.2795 29.4246 27.2802 29.4229C27.3347 28.7569 27.6697 28.1462 28.1929 27.7208C28.9993 27.0692 30.1849 26.9728 31.0636 27.5361C31.0835 27.5501 31.1177 27.5715 31.1516 27.592C31.7913 28.0018 32.1865 28.6851 32.255 29.4452C32.5146 31.6342 29.6905 33.0552 28.0883 31.5119ZM30.8329 13.039L30.7649 25.6192C29.9866 25.4338 29.1654 25.463 28.4086 25.727C28.4184 24.4404 28.4901 11.876 28.499 10.2514L30.1822 11.6067C30.6128 11.9566 30.85 12.471 30.8329 13.039ZM32.646 40.3465C33.7856 42.7397 31.7735 45.6583 29.1621 45.4844C26.239 45.4596 24.4942 41.7983 26.3749 39.527C27.5883 37.9596 28.2926 35.9467 28.3581 33.8373L28.3593 33.5846C29.123 33.8501 29.9447 33.8911 30.7332 33.7128V33.9618C30.6017 36.3718 31.4265 38.4383 32.646 40.3465ZM44.1597 32.9112C44.1589 32.9116 44.1585 32.912 44.1581 32.9124C43.0721 33.627 41.6162 33.6892 40.461 33.0793C38.6481 31.7417 36.63 30.7416 34.2513 30.7018L33.8098 30.6741C33.8581 30.3954 33.9214 30.1196 33.9314 29.8306C33.9315 29.8297 33.9313 29.8291 33.9313 29.8282C33.9314 29.8267 33.9318 29.8252 33.9318 29.8237C33.9424 29.6267 33.9322 29.4412 33.9131 29.2776C33.885 28.9441 33.7992 28.6211 33.7048 28.3019L34.3046 28.3413C36.2178 28.4064 38.0521 27.9609 39.5548 27.0706C43.766 23.7972 48.4357 29.7514 44.1597 32.9112Z" fill="#FF623D"/>
<path d="M49.6921 12.8717L44.06 8.29555C43.985 8.07018 43.7582 7.93263 43.5455 7.87751L36.3583 2.03792C36.2098 1.91748 36.0243 1.85156 35.833 1.85156H31.6663C31.2061 1.85156 30.833 2.22469 30.833 2.6849C30.833 3.1451 31.2061 3.51823 31.6663 3.51823H35.5372L41.925 8.70774L35.6717 13.5714C34.7632 12.697 33.5384 13.9753 34.5073 14.7882L39.5155 18.3632C39.7579 18.5364 40.075 18.5664 40.3443 18.4434L49.511 14.2767C50.0634 14.0455 50.1694 13.236 49.6921 12.8717ZM40.0924 16.7275L37.0872 14.582L43.2528 9.78649L47.5973 13.316L40.0924 16.7275Z" fill="#FF623D"/>
</g>
<defs>
<clipPath id="clip0_1594_39">
<rect width="50" height="45" fill="white" transform="translate(0 2)"/>
</clipPath>
</defs>
</svg>
