<svg width="50" height="50" viewBox="0 0 50 50" fill="none" xmlns="http://www.w3.org/2000/svg">
<g clip-path="url(#clip0_1594_56)">
<path d="M24.7367 0.945312C19.5788 0.945312 15.4209 5.06355 15.4209 10.1722C15.4209 15.2809 19.5788 19.3992 24.7367 19.3992C29.8946 19.3992 34.0525 15.2809 34.0525 10.1722C34.0525 5.06355 29.8946 0.945312 24.7367 0.945312ZM28.6841 10.9021L23.2104 14.2383C22.6314 14.6033 21.842 14.1862 21.842 13.5085V6.83595C21.842 6.15827 22.5788 5.74123 23.2104 6.10614L28.6841 9.44243C29.263 9.75521 29.263 10.5893 28.6841 10.9021Z" fill="#FF623D"/>
<path d="M15.2626 18.2541L12.5257 20.9649L11.5257 19.9744C11.3152 19.7659 10.9994 19.6616 10.6836 19.7659C10.3678 19.8701 10.1573 20.1308 10.1573 20.4436L9.68361 24.1448C9.63098 24.4054 9.73624 24.6139 9.89414 24.8224C10.052 24.9788 10.2626 25.0831 10.4731 25.0831C10.5257 25.0831 10.5257 25.0831 10.5784 25.0831L14.3152 24.6139C14.631 24.5618 14.8941 24.3533 14.9994 24.0926C15.1047 23.7798 14.9994 23.4671 14.7889 23.2586L13.7889 22.2681L16.5257 19.5574C16.8941 19.1924 16.8941 18.619 16.5257 18.2541C16.2099 17.9413 15.631 17.9413 15.2626 18.2541Z" fill="#FF623D"/>
<path d="M24.7362 21.6406C24.2099 21.6406 23.7889 22.0577 23.7889 22.579V26.3844H22.4204C22.1047 26.3844 21.8415 26.5408 21.6836 26.8536C21.5257 27.1142 21.5783 27.4791 21.7889 27.6877L24.1047 30.6069C24.2626 30.8154 24.4731 30.9197 24.7362 30.9197C24.9994 30.9197 25.2099 30.8154 25.3678 30.6069L27.6836 27.6877C27.8941 27.427 27.8941 27.1142 27.7889 26.8536C27.631 26.5929 27.3678 26.3844 27.052 26.3844H25.6836V22.579C25.6836 22.0577 25.2626 21.6406 24.7362 21.6406Z" fill="#FF623D"/>
<path d="M38.9471 25.0831C39.1576 25.0831 39.3682 24.9789 39.5261 24.8225C39.684 24.6661 39.7892 24.4054 39.7366 24.1448L39.2629 20.4436C39.2103 20.1308 38.9997 19.8702 38.7366 19.7659C38.4208 19.6616 38.105 19.7659 37.8945 19.9744L36.8945 20.9649L34.2103 18.2541C33.8418 17.8892 33.2629 17.8892 32.8945 18.2541C32.5261 18.6191 32.5261 19.1925 32.8945 19.5574L35.6313 22.2681L34.6313 23.2586C34.4208 23.4671 34.3155 23.7799 34.4208 24.0927C34.5261 24.4054 34.7892 24.614 35.105 24.614L38.8418 25.0831C38.8945 25.0831 38.9471 25.0831 38.9471 25.0831Z" fill="#FF623D"/>
<path d="M9.31538 34.0469C8.36801 34.6724 7.21011 35.0895 5.99959 35.0895C4.78906 35.0895 3.63117 34.7246 2.6838 34.0469C0.999589 34.6203 -0.210938 36.2363 -0.210938 38.113V40.7716C-0.210938 41.2408 0.157484 41.6057 0.631168 41.6057H11.4733C11.947 41.6057 12.3154 41.2408 12.3154 40.7716V38.113C12.2627 36.2363 11.0522 34.6203 9.31538 34.0469Z" fill="#FF623D"/>
<path d="M5.99943 32.9545C8.1047 32.9545 9.78891 31.2864 9.78891 29.2012C9.78891 27.116 8.1047 25.5 5.99943 25.5C3.89417 25.5 2.20996 27.1681 2.20996 29.2533C2.20996 31.3385 3.89417 32.9545 5.99943 32.9545Z" fill="#FF623D"/>
<path d="M46.8417 34.0469C45.8944 34.6724 44.7365 35.0895 43.526 35.0895C42.3154 35.0895 41.1575 34.7246 40.2102 34.0469C38.526 34.6203 37.3154 36.2363 37.3154 38.113V40.7716C37.3154 41.2408 37.6838 41.6057 38.1575 41.6057H48.9996C49.4733 41.6057 49.8417 41.2408 49.8417 40.7716V38.113C49.7365 36.2363 48.526 34.6203 46.8417 34.0469Z" fill="#FF623D"/>
<path d="M43.4731 32.9545C45.5783 32.9545 47.2625 31.2864 47.2625 29.2012C47.2625 27.116 45.5783 25.5 43.4731 25.5C41.3678 25.5 39.6836 27.1681 39.6836 29.2533C39.6836 31.3385 41.3678 32.9545 43.4731 32.9545Z" fill="#FF623D"/>
<path d="M28.0517 41.3984C27.1043 42.024 25.9464 42.441 24.7359 42.441C23.4728 42.441 22.3675 42.0761 21.4201 41.3984C19.7359 41.9719 18.5254 43.5879 18.5254 45.4645V48.1231C18.5254 48.5923 18.8938 48.9572 19.3675 48.9572H30.2096C30.6833 48.9572 31.0517 48.5923 31.0517 48.1231V45.4645C30.9991 43.5879 29.7885 42.024 28.0517 41.3984Z" fill="#FF623D"/>
<path d="M24.7367 40.3543C26.842 40.3543 28.5262 38.6862 28.5262 36.601C28.5262 34.5158 26.842 32.8477 24.7367 32.8477C22.6315 32.8477 20.9473 34.5158 20.9473 36.601C20.9473 38.6862 22.6315 40.3543 24.7367 40.3543Z" fill="#FF623D"/>
</g>
<defs>
<clipPath id="clip0_1594_56">
<rect width="50" height="47.9592" fill="white" transform="translate(0 1)"/>
</clipPath>
</defs>
</svg>
