<svg width="316" height="169" viewBox="0 0 316 169" fill="none" xmlns="http://www.w3.org/2000/svg">
<g clip-path="url(#clip0_909_3)">
<rect width="316" height="169" fill="white"/>
<rect x="-32" y="47" width="295" height="130" rx="10" fill="#FF623D"/>
<rect x="229" y="54" width="28" height="8" rx="3" fill="white"/>
<rect x="197" y="84" width="110" height="60" rx="5" fill="#F1F1F1"/>
<path d="M208.028 108.267H208.386L208.598 108.542L208.749 108.721L209.113 109.188H208.729L208.482 108.874L208.376 108.725L208.028 108.267ZM209.165 107.909C209.165 108.144 209.121 108.346 209.033 108.513C208.945 108.68 208.826 108.808 208.675 108.897C208.524 108.985 208.353 109.03 208.162 109.03C207.971 109.03 207.8 108.985 207.649 108.897C207.498 108.807 207.379 108.679 207.291 108.512C207.203 108.344 207.16 108.143 207.16 107.909C207.16 107.674 207.203 107.473 207.291 107.306C207.379 107.138 207.498 107.01 207.649 106.922C207.8 106.833 207.971 106.788 208.162 106.788C208.353 106.788 208.524 106.833 208.675 106.922C208.826 107.01 208.945 107.138 209.033 107.306C209.121 107.473 209.165 107.674 209.165 107.909ZM208.767 107.909C208.767 107.744 208.741 107.604 208.69 107.49C208.638 107.376 208.567 107.29 208.477 107.232C208.386 107.173 208.281 107.143 208.162 107.143C208.044 107.143 207.939 107.173 207.848 107.232C207.757 107.29 207.686 107.376 207.634 107.49C207.583 107.604 207.557 107.744 207.557 107.909C207.557 108.075 207.583 108.214 207.634 108.329C207.686 108.442 207.757 108.529 207.848 108.588C207.939 108.646 208.044 108.675 208.162 108.675C208.281 108.675 208.386 108.646 208.477 108.588C208.567 108.529 208.638 108.442 208.69 108.329C208.741 108.214 208.767 108.075 208.767 107.909ZM210.567 108.312V107.364H210.953V109H210.579V108.709H210.562C210.525 108.801 210.464 108.876 210.38 108.934C210.296 108.992 210.193 109.021 210.07 109.021C209.963 109.021 209.868 108.998 209.785 108.95C209.704 108.902 209.64 108.832 209.594 108.74C209.547 108.648 209.524 108.536 209.524 108.406V107.364H209.91V108.346C209.91 108.45 209.938 108.532 209.995 108.593C210.052 108.654 210.127 108.685 210.219 108.685C210.276 108.685 210.331 108.671 210.384 108.643C210.437 108.615 210.481 108.574 210.515 108.52C210.55 108.464 210.567 108.395 210.567 108.312ZM211.82 109.033C211.717 109.033 211.623 109.015 211.54 108.978C211.458 108.94 211.392 108.885 211.344 108.811C211.297 108.738 211.273 108.648 211.273 108.541C211.273 108.449 211.29 108.372 211.324 108.312C211.358 108.251 211.405 108.203 211.464 108.167C211.522 108.131 211.589 108.103 211.663 108.085C211.737 108.066 211.814 108.052 211.894 108.043C211.99 108.033 212.068 108.025 212.127 108.017C212.187 108.008 212.23 107.995 212.257 107.978C212.285 107.961 212.299 107.933 212.299 107.896V107.89C212.299 107.81 212.275 107.748 212.227 107.703C212.18 107.659 212.111 107.637 212.022 107.637C211.927 107.637 211.852 107.658 211.797 107.699C211.742 107.74 211.705 107.789 211.686 107.845L211.326 107.794C211.354 107.695 211.401 107.612 211.467 107.545C211.532 107.477 211.612 107.427 211.706 107.393C211.801 107.359 211.905 107.342 212.02 107.342C212.098 107.342 212.177 107.352 212.255 107.37C212.333 107.388 212.405 107.419 212.469 107.462C212.534 107.504 212.586 107.561 212.625 107.633C212.665 107.706 212.684 107.796 212.684 107.905V109H212.314V108.775H212.301C212.277 108.821 212.244 108.863 212.202 108.903C212.16 108.942 212.107 108.974 212.043 108.998C211.98 109.021 211.906 109.033 211.82 109.033ZM211.921 108.75C211.998 108.75 212.065 108.734 212.122 108.704C212.179 108.673 212.222 108.631 212.253 108.58C212.284 108.529 212.3 108.473 212.3 108.413V108.22C212.288 108.23 212.267 108.239 212.238 108.248C212.21 108.256 212.178 108.264 212.142 108.27C212.107 108.277 212.071 108.282 212.037 108.287C212.002 108.292 211.972 108.297 211.946 108.3C211.889 108.308 211.837 108.321 211.792 108.338C211.746 108.356 211.71 108.381 211.684 108.413C211.658 108.444 211.645 108.485 211.645 108.534C211.645 108.605 211.671 108.659 211.722 108.695C211.774 108.732 211.84 108.75 211.921 108.75ZM213.458 106.818V109H213.072V106.818H213.458ZM213.854 109V107.364H214.24V109H213.854ZM214.048 107.131C213.987 107.131 213.935 107.111 213.891 107.071C213.847 107.029 213.825 106.98 213.825 106.923C213.825 106.864 213.847 106.815 213.891 106.775C213.935 106.733 213.987 106.713 214.048 106.713C214.11 106.713 214.163 106.733 214.206 106.775C214.25 106.815 214.272 106.864 214.272 106.923C214.272 106.98 214.25 107.029 214.206 107.071C214.163 107.111 214.11 107.131 214.048 107.131ZM215.454 107.364V107.662H214.513V107.364H215.454ZM214.745 106.972H215.131V108.508C215.131 108.56 215.139 108.599 215.154 108.627C215.171 108.654 215.192 108.673 215.218 108.683C215.245 108.692 215.274 108.697 215.306 108.697C215.33 108.697 215.352 108.696 215.372 108.692C215.392 108.689 215.408 108.685 215.419 108.683L215.484 108.984C215.463 108.991 215.434 108.999 215.395 109.007C215.358 109.016 215.311 109.021 215.257 109.022C215.16 109.025 215.073 109.011 214.996 108.979C214.918 108.946 214.857 108.896 214.811 108.827C214.767 108.759 214.745 108.674 214.745 108.572V106.972ZM216.016 109.614C215.963 109.614 215.915 109.609 215.87 109.601C215.826 109.593 215.791 109.584 215.765 109.573L215.854 109.273C215.91 109.289 215.96 109.297 216.004 109.296C216.048 109.295 216.087 109.282 216.12 109.255C216.154 109.228 216.183 109.184 216.207 109.123L216.24 109.034L215.646 107.364H216.055L216.433 108.599H216.45L216.828 107.364H217.238L216.583 109.198C216.552 109.285 216.512 109.359 216.461 109.421C216.411 109.483 216.349 109.531 216.276 109.564C216.203 109.597 216.117 109.614 216.016 109.614Z" fill="#6D6D6D"/>
<path d="M207.215 127V124.818H208.613V125.15H207.61V125.742H208.517V126.073H207.61V127H207.215ZM209.55 127.032C209.39 127.032 209.251 126.997 209.134 126.926C209.017 126.856 208.926 126.758 208.861 126.631C208.797 126.505 208.766 126.357 208.766 126.188C208.766 126.019 208.797 125.871 208.861 125.744C208.926 125.617 209.017 125.518 209.134 125.448C209.251 125.377 209.39 125.342 209.55 125.342C209.709 125.342 209.848 125.377 209.965 125.448C210.082 125.518 210.173 125.617 210.237 125.744C210.301 125.871 210.334 126.019 210.334 126.188C210.334 126.357 210.301 126.505 210.237 126.631C210.173 126.758 210.082 126.856 209.965 126.926C209.848 126.997 209.709 127.032 209.55 127.032ZM209.552 126.723C209.638 126.723 209.711 126.699 209.769 126.652C209.827 126.603 209.871 126.539 209.899 126.458C209.928 126.377 209.943 126.287 209.943 126.187C209.943 126.087 209.928 125.996 209.899 125.915C209.871 125.834 209.827 125.769 209.769 125.721C209.711 125.672 209.638 125.648 209.552 125.648C209.463 125.648 209.389 125.672 209.33 125.721C209.272 125.769 209.228 125.834 209.199 125.915C209.171 125.996 209.157 126.087 209.157 126.187C209.157 126.287 209.171 126.377 209.199 126.458C209.228 126.539 209.272 126.603 209.33 126.652C209.389 126.699 209.463 126.723 209.552 126.723ZM210.661 127V125.364H211.035V125.636H211.052C211.082 125.542 211.133 125.469 211.205 125.418C211.279 125.366 211.362 125.34 211.456 125.34C211.477 125.34 211.501 125.341 211.527 125.343C211.554 125.345 211.577 125.347 211.594 125.351V125.706C211.578 125.7 211.552 125.695 211.517 125.691C211.482 125.686 211.448 125.683 211.415 125.683C211.345 125.683 211.282 125.699 211.226 125.729C211.17 125.759 211.127 125.8 211.095 125.854C211.063 125.907 211.047 125.968 211.047 126.038V127H210.661ZM211.85 127V125.364H212.219V125.642H212.238C212.272 125.548 212.329 125.475 212.408 125.422C212.487 125.369 212.581 125.342 212.69 125.342C212.801 125.342 212.894 125.369 212.97 125.423C213.047 125.477 213.101 125.549 213.132 125.642H213.149C213.185 125.551 213.246 125.478 213.332 125.424C213.419 125.37 213.522 125.342 213.64 125.342C213.791 125.342 213.914 125.39 214.009 125.485C214.104 125.58 214.152 125.719 214.152 125.902V127H213.765V125.961C213.765 125.86 213.738 125.786 213.684 125.739C213.63 125.691 213.564 125.667 213.486 125.667C213.393 125.667 213.32 125.696 213.267 125.755C213.216 125.812 213.19 125.887 213.19 125.979V127H212.811V125.945C212.811 125.861 212.786 125.793 212.735 125.743C212.684 125.692 212.618 125.667 212.537 125.667C212.481 125.667 212.431 125.681 212.385 125.71C212.34 125.738 212.304 125.777 212.277 125.828C212.25 125.879 212.236 125.937 212.236 126.005V127H211.85ZM215.014 127.033C214.91 127.033 214.817 127.015 214.734 126.978C214.651 126.94 214.586 126.885 214.538 126.811C214.49 126.738 214.466 126.648 214.466 126.541C214.466 126.449 214.483 126.372 214.517 126.312C214.551 126.251 214.598 126.203 214.657 126.167C214.716 126.131 214.782 126.103 214.856 126.085C214.931 126.066 215.008 126.052 215.087 126.043C215.183 126.033 215.261 126.025 215.321 126.017C215.38 126.008 215.424 125.995 215.451 125.978C215.478 125.961 215.492 125.933 215.492 125.896V125.89C215.492 125.81 215.468 125.748 215.421 125.703C215.373 125.659 215.305 125.637 215.215 125.637C215.121 125.637 215.046 125.658 214.99 125.699C214.936 125.74 214.899 125.789 214.88 125.845L214.519 125.794C214.548 125.695 214.595 125.612 214.66 125.545C214.725 125.477 214.805 125.427 214.9 125.393C214.994 125.359 215.099 125.342 215.213 125.342C215.292 125.342 215.37 125.352 215.448 125.37C215.527 125.388 215.598 125.419 215.663 125.462C215.727 125.504 215.779 125.561 215.818 125.633C215.858 125.706 215.878 125.796 215.878 125.905V127H215.507V126.775H215.494C215.471 126.821 215.438 126.863 215.395 126.903C215.353 126.942 215.3 126.974 215.236 126.998C215.173 127.021 215.099 127.033 215.014 127.033ZM215.114 126.75C215.191 126.75 215.258 126.734 215.315 126.704C215.372 126.673 215.416 126.631 215.446 126.58C215.478 126.529 215.493 126.473 215.493 126.413V126.22C215.481 126.23 215.46 126.239 215.431 126.248C215.403 126.256 215.371 126.264 215.335 126.27C215.3 126.277 215.265 126.282 215.23 126.287C215.195 126.292 215.165 126.297 215.139 126.3C215.082 126.308 215.03 126.321 214.985 126.338C214.94 126.356 214.904 126.381 214.877 126.413C214.851 126.444 214.838 126.485 214.838 126.534C214.838 126.605 214.864 126.659 214.916 126.695C214.968 126.732 215.034 126.75 215.114 126.75ZM217.083 125.364V125.662H216.142V125.364H217.083ZM216.374 124.972H216.76V126.508C216.76 126.56 216.768 126.599 216.783 126.627C216.8 126.654 216.821 126.673 216.847 126.683C216.873 126.692 216.903 126.697 216.935 126.697C216.959 126.697 216.981 126.696 217.001 126.692C217.021 126.689 217.037 126.685 217.047 126.683L217.112 126.984C217.092 126.991 217.062 126.999 217.024 127.007C216.986 127.016 216.94 127.021 216.886 127.022C216.789 127.025 216.702 127.011 216.625 126.979C216.547 126.946 216.486 126.896 216.44 126.827C216.396 126.759 216.373 126.674 216.374 126.572V124.972Z" fill="#6D6D6D"/>
<path d="M211.868 57.3906C211.855 57.2666 211.799 57.17 211.7 57.1009C211.603 57.0317 211.476 56.9972 211.32 56.9972C211.21 56.9972 211.116 57.0137 211.037 57.0469C210.958 57.08 210.898 57.125 210.857 57.1818C210.815 57.2386 210.794 57.3035 210.793 57.3764C210.793 57.437 210.806 57.4896 210.834 57.5341C210.862 57.5786 210.901 57.6165 210.949 57.6477C210.997 57.678 211.051 57.7036 211.109 57.7244C211.168 57.7453 211.227 57.7628 211.287 57.777L211.56 57.8452C211.67 57.8707 211.775 57.9053 211.876 57.9489C211.979 57.9924 212.07 58.0473 212.151 58.1136C212.232 58.1799 212.296 58.2599 212.344 58.3537C212.391 58.4474 212.415 58.5573 212.415 58.6832C212.415 58.8537 212.371 59.0038 212.284 59.1335C212.197 59.2623 212.071 59.3632 211.906 59.4361C211.742 59.508 211.544 59.544 211.311 59.544C211.085 59.544 210.888 59.509 210.722 59.4389C210.556 59.3688 210.426 59.2666 210.332 59.1321C210.24 58.9976 210.189 58.8338 210.182 58.6406H210.7C210.708 58.742 210.739 58.8262 210.794 58.8935C210.849 58.9607 210.92 59.0109 211.009 59.044C211.098 59.0772 211.197 59.0938 211.307 59.0938C211.421 59.0938 211.522 59.0767 211.608 59.0426C211.695 59.0076 211.763 58.9593 211.812 58.8977C211.862 58.8352 211.887 58.7623 211.888 58.679C211.887 58.6032 211.865 58.5407 211.821 58.4915C211.777 58.4413 211.716 58.3996 211.638 58.3665C211.56 58.3324 211.469 58.3021 211.365 58.2756L211.034 58.1903C210.795 58.1288 210.605 58.0355 210.466 57.9105C210.328 57.7846 210.259 57.6174 210.259 57.4091C210.259 57.2377 210.305 57.0876 210.398 56.9588C210.491 56.83 210.619 56.7301 210.78 56.6591C210.941 56.5871 211.123 56.5511 211.327 56.5511C211.533 56.5511 211.714 56.5871 211.869 56.6591C212.026 56.7301 212.148 56.8291 212.237 56.956C212.326 57.0819 212.372 57.2268 212.375 57.3906H211.868ZM213.376 58.2216V59.5H212.862V56.5909H213.365V57.6889H213.39C213.441 57.5658 213.52 57.4687 213.627 57.3977C213.735 57.3258 213.873 57.2898 214.039 57.2898C214.191 57.2898 214.323 57.3215 214.436 57.3849C214.548 57.4484 214.636 57.5412 214.697 57.6634C214.76 57.7855 214.791 57.9347 214.791 58.1108V59.5H214.277V58.1903C214.277 58.0436 214.239 57.9295 214.163 57.848C214.088 57.7656 213.983 57.7244 213.848 57.7244C213.757 57.7244 213.675 57.7443 213.603 57.7841C213.532 57.8229 213.476 57.8793 213.436 57.9531C213.396 58.027 213.376 58.1165 213.376 58.2216ZM215.943 59.544C215.805 59.544 215.68 59.5194 215.569 59.4702C215.459 59.42 215.372 59.3461 215.308 59.2486C215.244 59.151 215.213 59.0308 215.213 58.8878C215.213 58.7647 215.235 58.6629 215.281 58.5824C215.326 58.5019 215.388 58.4375 215.467 58.3892C215.546 58.3409 215.634 58.3045 215.733 58.2798C215.832 58.2543 215.935 58.2358 216.041 58.2244C216.169 58.2112 216.272 58.1993 216.352 58.1889C216.431 58.1776 216.489 58.1605 216.525 58.1378C216.562 58.1141 216.581 58.0777 216.581 58.0284V58.0199C216.581 57.9129 216.549 57.83 216.485 57.7713C216.422 57.7126 216.331 57.6832 216.211 57.6832C216.085 57.6832 215.985 57.7107 215.912 57.7656C215.839 57.8205 215.789 57.8854 215.764 57.9602L215.284 57.892C215.322 57.7595 215.384 57.6487 215.471 57.5597C215.558 57.4697 215.665 57.4025 215.791 57.358C215.917 57.3125 216.056 57.2898 216.208 57.2898C216.314 57.2898 216.418 57.3021 216.522 57.3267C216.627 57.3513 216.722 57.392 216.808 57.4489C216.894 57.5047 216.963 57.581 217.015 57.6776C217.068 57.7741 217.095 57.8949 217.095 58.0398V59.5H216.6V59.2003H216.583C216.552 59.2609 216.508 59.3177 216.451 59.3707C216.395 59.4228 216.325 59.465 216.24 59.4972C216.155 59.5284 216.056 59.544 215.943 59.544ZM216.076 59.1662C216.18 59.1662 216.269 59.1458 216.345 59.1051C216.421 59.0634 216.479 59.0085 216.52 58.9403C216.561 58.8722 216.582 58.7978 216.582 58.7173V58.4602C216.566 58.4735 216.538 58.4858 216.5 58.4972C216.462 58.5085 216.419 58.5185 216.372 58.527C216.324 58.5355 216.278 58.5431 216.231 58.5497C216.185 58.5563 216.145 58.562 216.11 58.5668C216.034 58.5772 215.965 58.5942 215.904 58.6179C215.844 58.6416 215.796 58.6747 215.761 58.7173C215.726 58.759 215.708 58.813 215.708 58.8793C215.708 58.974 215.743 59.0455 215.812 59.0938C215.881 59.142 215.969 59.1662 216.076 59.1662ZM217.612 59.5V57.3182H218.11V57.6818H218.133C218.173 57.5559 218.241 57.4588 218.338 57.3906C218.435 57.3215 218.547 57.2869 218.672 57.2869C218.7 57.2869 218.732 57.2884 218.767 57.2912C218.803 57.2931 218.833 57.2964 218.856 57.3011V57.7741C218.834 57.7666 218.8 57.7599 218.752 57.7543C218.706 57.7476 218.661 57.7443 218.618 57.7443C218.524 57.7443 218.44 57.7647 218.365 57.8054C218.291 57.8452 218.233 57.9006 218.19 57.9716C218.147 58.0426 218.126 58.1245 218.126 58.2173V59.5H217.612ZM220.074 59.5426C219.855 59.5426 219.666 59.4972 219.507 59.4062C219.349 59.3144 219.227 59.1847 219.142 59.017C219.057 58.8485 219.014 58.6501 219.014 58.4219C219.014 58.1974 219.057 58.0005 219.142 57.831C219.228 57.6605 219.348 57.5279 219.503 57.4332C219.657 57.3376 219.839 57.2898 220.047 57.2898C220.181 57.2898 220.308 57.3116 220.428 57.3551C220.548 57.3977 220.654 57.464 220.746 57.554C220.839 57.6439 220.911 57.7585 220.964 57.8977C221.018 58.036 221.044 58.2008 221.044 58.392V58.5497H219.256V58.2031H220.551C220.55 58.1046 220.529 58.017 220.487 57.9403C220.446 57.8627 220.387 57.8016 220.312 57.7571C220.239 57.7126 220.152 57.6903 220.054 57.6903C219.949 57.6903 219.857 57.7159 219.777 57.767C219.697 57.8172 219.635 57.8835 219.591 57.9659C219.547 58.0473 219.525 58.1368 219.524 58.2344V58.5369C219.524 58.6638 219.547 58.7727 219.594 58.8636C219.64 58.9536 219.705 59.0227 219.788 59.071C219.872 59.1184 219.969 59.142 220.081 59.142C220.156 59.142 220.223 59.1316 220.284 59.1108C220.345 59.089 220.397 59.0573 220.442 59.0156C220.486 58.974 220.52 58.9223 220.543 58.8608L221.023 58.9148C220.992 59.0417 220.935 59.1525 220.849 59.2472C220.765 59.3409 220.657 59.4138 220.526 59.4659C220.394 59.517 220.243 59.5426 220.074 59.5426Z" fill="white"/>
<path d="M237.251 59V56.4545H238.907V56.8411H237.712V57.5321H238.821V57.9187H237.712V58.6135H238.917V59H237.251ZM239.725 57.0909L240.11 57.7956L240.502 57.0909H240.978L240.402 58.0455L240.988 59H240.514L240.11 58.3127L239.71 59H239.233L239.815 58.0455L239.248 57.0909H239.725ZM241.326 59.7159V57.0909H241.768V57.4066H241.794C241.818 57.3602 241.85 57.3109 241.893 57.2587C241.935 57.2057 241.992 57.1605 242.064 57.1232C242.136 57.0851 242.228 57.0661 242.34 57.0661C242.488 57.0661 242.621 57.1038 242.739 57.1792C242.858 57.2537 242.953 57.3643 243.022 57.511C243.093 57.6568 243.128 57.8358 243.128 58.0479C243.128 58.2576 243.094 58.4357 243.025 58.5824C242.956 58.729 242.863 58.8409 242.744 58.918C242.626 58.995 242.491 59.0336 242.341 59.0336C242.232 59.0336 242.141 59.0153 242.069 58.9789C241.997 58.9424 241.939 58.8985 241.895 58.8471C241.852 58.7949 241.819 58.7456 241.794 58.6992H241.776V59.7159H241.326ZM241.767 58.0455C241.767 58.1689 241.785 58.277 241.819 58.3699C241.855 58.4627 241.906 58.5352 241.972 58.5874C242.039 58.6387 242.121 58.6644 242.216 58.6644C242.315 58.6644 242.399 58.6379 242.466 58.5849C242.533 58.531 242.583 58.4577 242.617 58.3649C242.652 58.2712 242.669 58.1648 242.669 58.0455C242.669 57.927 242.652 57.8217 242.619 57.7298C242.585 57.6378 242.534 57.5657 242.467 57.5135C242.4 57.4613 242.316 57.4352 242.216 57.4352C242.12 57.4352 242.038 57.4605 241.971 57.511C241.904 57.5616 241.853 57.6324 241.818 57.7235C241.784 57.8147 241.767 57.922 241.767 58.0455ZM244.346 59.0373C244.16 59.0373 243.998 58.9963 243.861 58.9142C243.725 58.8322 243.619 58.7174 243.543 58.57C243.469 58.4225 243.431 58.2501 243.431 58.0529C243.431 57.8557 243.469 57.6829 243.543 57.5346C243.619 57.3863 243.725 57.2711 243.861 57.1891C243.998 57.1071 244.16 57.0661 244.346 57.0661C244.533 57.0661 244.694 57.1071 244.831 57.1891C244.968 57.2711 245.073 57.3863 245.148 57.5346C245.223 57.6829 245.261 57.8557 245.261 58.0529C245.261 58.2501 245.223 58.4225 245.148 58.57C245.073 58.7174 244.968 58.8322 244.831 58.9142C244.694 58.9963 244.533 59.0373 244.346 59.0373ZM244.349 58.6768C244.45 58.6768 244.534 58.6491 244.602 58.5936C244.67 58.5372 244.721 58.4618 244.754 58.3674C244.788 58.2729 244.805 58.1677 244.805 58.0517C244.805 57.9348 244.788 57.8292 244.754 57.7347C244.721 57.6394 244.67 57.5636 244.602 57.5073C244.534 57.4509 244.45 57.4228 244.349 57.4228C244.245 57.4228 244.159 57.4509 244.09 57.5073C244.022 57.5636 243.971 57.6394 243.937 57.7347C243.904 57.8292 243.888 57.9348 243.888 58.0517C243.888 58.1677 243.904 58.2729 243.937 58.3674C243.971 58.4618 244.022 58.5372 244.09 58.5936C244.159 58.6491 244.245 58.6768 244.349 58.6768ZM245.643 59V57.0909H246.079V57.4091H246.099C246.134 57.2989 246.193 57.214 246.278 57.1543C246.363 57.0938 246.461 57.0636 246.57 57.0636C246.595 57.0636 246.623 57.0648 246.653 57.0673C246.685 57.069 246.711 57.0719 246.732 57.076V57.4899C246.713 57.4833 246.682 57.4775 246.641 57.4725C246.6 57.4667 246.561 57.4638 246.523 57.4638C246.441 57.4638 246.367 57.4816 246.302 57.5172C246.237 57.552 246.186 57.6005 246.149 57.6626C246.111 57.7248 246.093 57.7965 246.093 57.8777V59H245.643ZM248.086 57.0909V57.4389H246.989V57.0909H248.086ZM247.26 56.6335H247.71V58.4258C247.71 58.4863 247.719 58.5327 247.737 58.565C247.756 58.5965 247.781 58.618 247.812 58.6296C247.842 58.6412 247.876 58.647 247.914 58.647C247.942 58.647 247.967 58.6449 247.991 58.6408C248.015 58.6367 248.033 58.6329 248.045 58.6296L248.121 58.9814C248.097 58.9896 248.063 58.9988 248.018 59.0087C247.974 59.0186 247.92 59.0244 247.856 59.0261C247.744 59.0294 247.642 59.0124 247.552 58.9751C247.462 58.937 247.39 58.8782 247.337 58.7987C247.285 58.7191 247.259 58.6197 247.26 58.5004V56.6335Z" fill="#363636"/>
<path d="M203.251 93V90.4545H204.907V90.8411H203.712V91.5321H204.821V91.9187H203.712V92.6135H204.917V93H203.251ZM205.725 91.0909L206.11 91.7956L206.502 91.0909H206.978L206.402 92.0455L206.988 93H206.514L206.11 92.3127L205.71 93H205.233L205.815 92.0455L205.248 91.0909H205.725ZM207.326 93.7159V91.0909H207.768V91.4066H207.794C207.818 91.3602 207.85 91.3109 207.893 91.2587C207.935 91.2057 207.992 91.1605 208.064 91.1232C208.136 91.0851 208.228 91.0661 208.34 91.0661C208.488 91.0661 208.621 91.1038 208.739 91.1792C208.858 91.2537 208.953 91.3643 209.022 91.511C209.093 91.6568 209.128 91.8358 209.128 92.0479C209.128 92.2576 209.094 92.4357 209.025 92.5824C208.956 92.729 208.863 92.8409 208.744 92.918C208.626 92.995 208.491 93.0336 208.341 93.0336C208.232 93.0336 208.141 93.0153 208.069 92.9789C207.997 92.9424 207.939 92.8985 207.895 92.8471C207.852 92.7949 207.819 92.7456 207.794 92.6992H207.776V93.7159H207.326ZM207.767 92.0455C207.767 92.1689 207.785 92.277 207.819 92.3699C207.855 92.4627 207.906 92.5352 207.972 92.5874C208.039 92.6387 208.121 92.6644 208.216 92.6644C208.315 92.6644 208.399 92.6379 208.466 92.5849C208.533 92.531 208.583 92.4577 208.617 92.3649C208.652 92.2712 208.669 92.1648 208.669 92.0455C208.669 91.927 208.652 91.8217 208.619 91.7298C208.585 91.6378 208.534 91.5657 208.467 91.5135C208.4 91.4613 208.316 91.4352 208.216 91.4352C208.12 91.4352 208.038 91.4605 207.971 91.511C207.904 91.5616 207.853 91.6324 207.818 91.7235C207.784 91.8147 207.767 91.922 207.767 92.0455ZM210.346 93.0373C210.16 93.0373 209.998 92.9963 209.861 92.9142C209.725 92.8322 209.619 92.7174 209.543 92.57C209.469 92.4225 209.431 92.2501 209.431 92.0529C209.431 91.8557 209.469 91.6829 209.543 91.5346C209.619 91.3863 209.725 91.2711 209.861 91.1891C209.998 91.1071 210.16 91.0661 210.346 91.0661C210.533 91.0661 210.694 91.1071 210.831 91.1891C210.968 91.2711 211.073 91.3863 211.148 91.5346C211.223 91.6829 211.261 91.8557 211.261 92.0529C211.261 92.2501 211.223 92.4225 211.148 92.57C211.073 92.7174 210.968 92.8322 210.831 92.9142C210.694 92.9963 210.533 93.0373 210.346 93.0373ZM210.349 92.6768C210.45 92.6768 210.534 92.6491 210.602 92.5936C210.67 92.5372 210.721 92.4618 210.754 92.3674C210.788 92.2729 210.805 92.1677 210.805 92.0517C210.805 91.9348 210.788 91.8292 210.754 91.7347C210.721 91.6394 210.67 91.5636 210.602 91.5073C210.534 91.4509 210.45 91.4228 210.349 91.4228C210.245 91.4228 210.159 91.4509 210.09 91.5073C210.022 91.5636 209.971 91.6394 209.937 91.7347C209.904 91.8292 209.888 91.9348 209.888 92.0517C209.888 92.1677 209.904 92.2729 209.937 92.3674C209.971 92.4618 210.022 92.5372 210.09 92.5936C210.159 92.6491 210.245 92.6768 210.349 92.6768ZM211.643 93V91.0909H212.079V91.4091H212.099C212.134 91.2989 212.193 91.214 212.278 91.1543C212.363 91.0938 212.461 91.0636 212.57 91.0636C212.595 91.0636 212.623 91.0648 212.653 91.0673C212.685 91.069 212.711 91.0719 212.732 91.076V91.4899C212.713 91.4833 212.682 91.4775 212.641 91.4725C212.6 91.4667 212.561 91.4638 212.523 91.4638C212.441 91.4638 212.367 91.4816 212.302 91.5172C212.237 91.552 212.186 91.6005 212.149 91.6626C212.111 91.7248 212.093 91.7965 212.093 91.8777V93H211.643ZM214.086 91.0909V91.4389H212.989V91.0909H214.086ZM213.26 90.6335H213.71V92.4258C213.71 92.4863 213.719 92.5327 213.737 92.565C213.756 92.5965 213.781 92.618 213.812 92.6296C213.842 92.6412 213.876 92.647 213.914 92.647C213.942 92.647 213.967 92.6449 213.991 92.6408C214.015 92.6367 214.033 92.6329 214.045 92.6296L214.121 92.9814C214.097 92.9896 214.063 92.9988 214.018 93.0087C213.974 93.0186 213.92 93.0244 213.856 93.0261C213.744 93.0294 213.642 93.0124 213.552 92.9751C213.462 92.937 213.39 92.8782 213.337 92.7987C213.285 92.7191 213.259 92.6197 213.26 92.5004V90.6335ZM215.691 90.4545L216.354 92.4581H216.38L217.041 90.4545H217.548L216.651 93H216.081L215.185 90.4545H215.691ZM217.864 93V91.0909H218.313V93H217.864ZM218.09 90.82C218.018 90.82 217.957 90.7963 217.906 90.7491C217.854 90.7011 217.829 90.6435 217.829 90.5763C217.829 90.5084 217.854 90.4508 217.906 90.4036C217.957 90.3555 218.018 90.3315 218.09 90.3315C218.162 90.3315 218.223 90.3555 218.274 90.4036C218.325 90.4508 218.351 90.5084 218.351 90.5763C218.351 90.6435 218.325 90.7011 218.274 90.7491C218.223 90.7963 218.162 90.82 218.09 90.82ZM219.485 93.0336C219.335 93.0336 219.2 92.995 219.082 92.918C218.963 92.8409 218.87 92.729 218.801 92.5824C218.732 92.4357 218.698 92.2576 218.698 92.0479C218.698 91.8358 218.733 91.6568 218.802 91.511C218.873 91.3643 218.968 91.2537 219.087 91.1792C219.206 91.1038 219.339 91.0661 219.486 91.0661C219.598 91.0661 219.69 91.0851 219.762 91.1232C219.834 91.1605 219.891 91.2057 219.933 91.2587C219.975 91.3109 220.008 91.3602 220.031 91.4066H220.05V90.4545H220.501V93H220.059V92.6992H220.031C220.008 92.7456 219.975 92.7949 219.931 92.8471C219.887 92.8985 219.829 92.9424 219.757 92.9789C219.685 93.0153 219.594 93.0336 219.485 93.0336ZM219.61 92.6644C219.705 92.6644 219.787 92.6387 219.854 92.5874C219.921 92.5352 219.972 92.4627 220.007 92.3699C220.041 92.277 220.059 92.1689 220.059 92.0455C220.059 91.922 220.041 91.8147 220.007 91.7235C219.973 91.6324 219.922 91.5616 219.855 91.511C219.789 91.4605 219.707 91.4352 219.61 91.4352C219.51 91.4352 219.426 91.4613 219.359 91.5135C219.292 91.5657 219.241 91.6378 219.207 91.7298C219.173 91.8217 219.156 91.927 219.156 92.0455C219.156 92.1648 219.173 92.2712 219.207 92.3649C219.242 92.4577 219.293 92.531 219.36 92.5849C219.428 92.6379 219.511 92.6644 219.61 92.6644ZM221.826 93.0373C221.634 93.0373 221.469 92.9975 221.33 92.918C221.192 92.8376 221.085 92.7241 221.011 92.5774C220.936 92.4299 220.899 92.2563 220.899 92.0566C220.899 91.8603 220.936 91.6879 221.011 91.5396C221.086 91.3904 221.191 91.2744 221.326 91.1916C221.461 91.1079 221.62 91.0661 221.802 91.0661C221.92 91.0661 222.031 91.0851 222.135 91.1232C222.241 91.1605 222.333 91.2185 222.414 91.2972C222.495 91.3759 222.559 91.4762 222.605 91.598C222.652 91.719 222.675 91.8632 222.675 92.0305V92.1685H221.11V91.8652H222.243C222.243 91.7791 222.224 91.7024 222.188 91.6353C222.151 91.5674 222.1 91.5139 222.035 91.475C221.97 91.436 221.895 91.4165 221.808 91.4165C221.716 91.4165 221.636 91.4389 221.566 91.4837C221.496 91.5276 221.442 91.5856 221.403 91.6577C221.365 91.7289 221.346 91.8072 221.345 91.8926V92.1573C221.345 92.2683 221.365 92.3636 221.406 92.4432C221.446 92.5219 221.503 92.5824 221.576 92.6246C221.649 92.6661 221.734 92.6868 221.832 92.6868C221.898 92.6868 221.957 92.6777 222.01 92.6594C222.063 92.6404 222.109 92.6126 222.148 92.5762C222.187 92.5397 222.216 92.4946 222.236 92.4407L222.656 92.4879C222.63 92.599 222.579 92.6959 222.504 92.7788C222.431 92.8608 222.336 92.9246 222.221 92.9702C222.106 93.0149 221.974 93.0373 221.826 93.0373ZM223.888 93.0373C223.702 93.0373 223.54 92.9963 223.403 92.9142C223.267 92.8322 223.161 92.7174 223.085 92.57C223.011 92.4225 222.973 92.2501 222.973 92.0529C222.973 91.8557 223.011 91.6829 223.085 91.5346C223.161 91.3863 223.267 91.2711 223.403 91.1891C223.54 91.1071 223.702 91.0661 223.888 91.0661C224.075 91.0661 224.236 91.1071 224.373 91.1891C224.51 91.2711 224.615 91.3863 224.69 91.5346C224.765 91.6829 224.803 91.8557 224.803 92.0529C224.803 92.2501 224.765 92.4225 224.69 92.57C224.615 92.7174 224.51 92.8322 224.373 92.9142C224.236 92.9963 224.075 93.0373 223.888 93.0373ZM223.891 92.6768C223.992 92.6768 224.076 92.6491 224.144 92.5936C224.212 92.5372 224.263 92.4618 224.296 92.3674C224.33 92.2729 224.347 92.1677 224.347 92.0517C224.347 91.9348 224.33 91.8292 224.296 91.7347C224.263 91.6394 224.212 91.5636 224.144 91.5073C224.076 91.4509 223.992 91.4228 223.891 91.4228C223.787 91.4228 223.701 91.4509 223.632 91.5073C223.564 91.5636 223.513 91.6394 223.479 91.7347C223.446 91.8292 223.43 91.9348 223.43 92.0517C223.43 92.1677 223.446 92.2729 223.479 92.3674C223.513 92.4618 223.564 92.5372 223.632 92.5936C223.701 92.6491 223.787 92.6768 223.891 92.6768Z" fill="black"/>
<rect x="222" y="104" width="75" height="8" rx="2" fill="white"/>
<rect x="222" y="122" width="75" height="8" rx="2" fill="white"/>
<line x1="300" y1="91.25" x2="303" y2="91.25" stroke="black" stroke-width="0.5"/>
</g>
<defs>
<clipPath id="clip0_909_3">
<rect width="316" height="169" fill="white"/>
</clipPath>
</defs>
</svg>
