<svg width="316" height="169" viewBox="0 0 316 169" fill="none" xmlns="http://www.w3.org/2000/svg">
<g clip-path="url(#clip0_909_7)">
<rect width="316" height="169" fill="white"/>
<rect x="104.5" y="45.5" width="106" height="49" rx="9.5" fill="white" stroke="#DADADA" stroke-dasharray="3 3"/>
<rect x="104" y="16" width="107" height="23" rx="5" fill="#FF623D"/>
<rect x="104" y="100" width="107" height="23" rx="5" fill="#FF623D"/>
<rect x="104.5" y="129.5" width="106" height="49" rx="9.5" fill="white" stroke="#DADADA" stroke-dasharray="3 3"/>
<path d="M134.287 82V79.0909H135.378C135.601 79.0909 135.789 79.1297 135.94 79.2074C136.093 79.285 136.208 79.3939 136.286 79.5341C136.364 79.6733 136.403 79.8357 136.403 80.0213C136.403 80.2079 136.364 80.3698 136.284 80.5071C136.205 80.6435 136.089 80.7491 135.936 80.8239C135.783 80.8977 135.594 80.9347 135.371 80.9347H134.594V80.4972H135.3C135.43 80.4972 135.537 80.4792 135.621 80.4432C135.704 80.4062 135.766 80.3527 135.805 80.2827C135.846 80.2116 135.866 80.1245 135.866 80.0213C135.866 79.9181 135.846 79.83 135.805 79.7571C135.765 79.6832 135.703 79.6274 135.619 79.5895C135.536 79.5507 135.429 79.5312 135.297 79.5312H134.814V82H134.287ZM135.79 80.6818L136.51 82H135.922L135.214 80.6818H135.79ZM137.8 82.0426C137.582 82.0426 137.393 81.9972 137.234 81.9062C137.076 81.8144 136.954 81.6847 136.869 81.517C136.783 81.3485 136.741 81.1501 136.741 80.9219C136.741 80.6974 136.783 80.5005 136.869 80.331C136.955 80.1605 137.075 80.0279 137.229 79.9332C137.384 79.8376 137.565 79.7898 137.773 79.7898C137.908 79.7898 138.035 79.8116 138.154 79.8551C138.274 79.8977 138.38 79.964 138.472 80.054C138.565 80.1439 138.638 80.2585 138.691 80.3977C138.744 80.536 138.771 80.7008 138.771 80.892V81.0497H136.982V80.7031H138.278C138.277 80.6046 138.255 80.517 138.214 80.4403C138.172 80.3627 138.114 80.3016 138.039 80.2571C137.965 80.2126 137.879 80.1903 137.781 80.1903C137.675 80.1903 137.583 80.2159 137.504 80.267C137.424 80.3172 137.362 80.3835 137.317 80.4659C137.274 80.5473 137.252 80.6368 137.251 80.7344V81.0369C137.251 81.1638 137.274 81.2727 137.32 81.3636C137.367 81.4536 137.432 81.5227 137.515 81.571C137.598 81.6184 137.696 81.642 137.808 81.642C137.882 81.642 137.95 81.6316 138.011 81.6108C138.071 81.589 138.124 81.5573 138.168 81.5156C138.213 81.474 138.246 81.4223 138.269 81.3608L138.749 81.4148C138.719 81.5417 138.661 81.6525 138.576 81.7472C138.492 81.8409 138.384 81.9138 138.252 81.9659C138.121 82.017 137.97 82.0426 137.8 82.0426ZM140.157 82.0426C139.94 82.0426 139.752 81.9948 139.596 81.8991C139.441 81.8035 139.321 81.6714 139.237 81.5028C139.154 81.3333 139.112 81.1383 139.112 80.9176C139.112 80.696 139.154 80.5005 139.24 80.331C139.325 80.1605 139.445 80.0279 139.6 79.9332C139.757 79.8376 139.941 79.7898 140.154 79.7898C140.332 79.7898 140.488 79.8224 140.625 79.8878C140.762 79.9522 140.871 80.0436 140.953 80.1619C141.034 80.2794 141.081 80.4167 141.092 80.5739H140.6C140.581 80.4687 140.533 80.3812 140.458 80.3111C140.385 80.2401 140.286 80.2045 140.162 80.2045C140.056 80.2045 139.964 80.233 139.885 80.2898C139.805 80.3456 139.743 80.4261 139.699 80.5312C139.655 80.6364 139.633 80.7623 139.633 80.9091C139.633 81.0578 139.655 81.1856 139.699 81.2926C139.742 81.3987 139.803 81.4806 139.882 81.5384C139.961 81.5952 140.055 81.6236 140.162 81.6236C140.237 81.6236 140.305 81.6094 140.365 81.581C140.425 81.5516 140.476 81.5095 140.517 81.4545C140.557 81.3996 140.585 81.3329 140.6 81.2543H141.092C141.08 81.4086 141.034 81.5455 140.956 81.6648C140.877 81.7831 140.77 81.8759 140.635 81.9432C140.499 82.0095 140.34 82.0426 140.157 82.0426ZM142.466 82.0426C142.253 82.0426 142.068 81.9957 141.912 81.902C141.756 81.8082 141.634 81.6771 141.548 81.5085C141.463 81.34 141.42 81.143 141.42 80.9176C141.42 80.6922 141.463 80.4948 141.548 80.3253C141.634 80.1558 141.756 80.0241 141.912 79.9304C142.068 79.8366 142.253 79.7898 142.466 79.7898C142.679 79.7898 142.864 79.8366 143.02 79.9304C143.176 80.0241 143.297 80.1558 143.382 80.3253C143.468 80.4948 143.511 80.6922 143.511 80.9176C143.511 81.143 143.468 81.34 143.382 81.5085C143.297 81.6771 143.176 81.8082 143.02 81.902C142.864 81.9957 142.679 82.0426 142.466 82.0426ZM142.469 81.6307C142.584 81.6307 142.681 81.599 142.759 81.5355C142.836 81.4711 142.894 81.3849 142.932 81.277C142.971 81.169 142.99 81.0488 142.99 80.9162C142.99 80.7827 142.971 80.6619 142.932 80.554C142.894 80.4451 142.836 80.3584 142.759 80.294C142.681 80.2296 142.584 80.1974 142.469 80.1974C142.35 80.1974 142.252 80.2296 142.173 80.294C142.096 80.3584 142.037 80.4451 141.999 80.554C141.961 80.6619 141.942 80.7827 141.942 80.9162C141.942 81.0488 141.961 81.169 141.999 81.277C142.037 81.3849 142.096 81.4711 142.173 81.5355C142.252 81.599 142.35 81.6307 142.469 81.6307ZM143.948 82V79.8182H144.446V80.1818H144.469C144.509 80.0559 144.577 79.9588 144.674 79.8906C144.771 79.8215 144.882 79.7869 145.007 79.7869C145.036 79.7869 145.068 79.7884 145.103 79.7912C145.139 79.7931 145.168 79.7964 145.192 79.8011V80.2741C145.17 80.2666 145.136 80.2599 145.088 80.2543C145.042 80.2476 144.997 80.2443 144.953 80.2443C144.86 80.2443 144.775 80.2647 144.701 80.3054C144.627 80.3452 144.569 80.4006 144.526 80.4716C144.483 80.5426 144.462 80.6245 144.462 80.7173V82H143.948ZM146.254 82.0384C146.082 82.0384 145.929 81.9943 145.793 81.9062C145.658 81.8182 145.551 81.6903 145.472 81.5227C145.394 81.3551 145.354 81.1515 145.354 80.9119C145.354 80.6695 145.394 80.465 145.474 80.2983C145.554 80.1307 145.663 80.0043 145.799 79.919C145.935 79.8329 146.087 79.7898 146.255 79.7898C146.383 79.7898 146.488 79.8116 146.57 79.8551C146.653 79.8977 146.718 79.9493 146.766 80.0099C146.815 80.0696 146.852 80.1259 146.879 80.179H146.9V79.0909H147.415V82H146.91V81.6562H146.879C146.852 81.7093 146.814 81.7656 146.763 81.8253C146.713 81.884 146.647 81.9342 146.565 81.9759C146.482 82.0175 146.379 82.0384 146.254 82.0384ZM146.397 81.6165C146.506 81.6165 146.599 81.5871 146.675 81.5284C146.752 81.4687 146.81 81.3859 146.85 81.2798C146.89 81.1738 146.91 81.0502 146.91 80.9091C146.91 80.768 146.89 80.6454 146.85 80.5412C146.811 80.437 146.754 80.3561 146.677 80.2983C146.601 80.2405 146.508 80.2116 146.397 80.2116C146.282 80.2116 146.187 80.2415 146.11 80.3011C146.033 80.3608 145.976 80.4432 145.937 80.5483C145.898 80.6534 145.879 80.7737 145.879 80.9091C145.879 81.0455 145.898 81.1671 145.937 81.2741C145.977 81.3802 146.035 81.464 146.112 81.5256C146.189 81.5862 146.284 81.6165 146.397 81.6165ZM149.583 82.044C149.445 82.044 149.321 82.0194 149.21 81.9702C149.1 81.92 149.013 81.8461 148.949 81.7486C148.885 81.651 148.853 81.5308 148.853 81.3878C148.853 81.2647 148.876 81.1629 148.922 81.0824C148.967 81.0019 149.029 80.9375 149.108 80.8892C149.186 80.8409 149.275 80.8045 149.373 80.7798C149.473 80.7543 149.575 80.7358 149.681 80.7244C149.809 80.7112 149.913 80.6993 149.993 80.6889C150.072 80.6776 150.13 80.6605 150.166 80.6378C150.203 80.6141 150.221 80.5777 150.221 80.5284V80.5199C150.221 80.4129 150.19 80.33 150.126 80.2713C150.063 80.2126 149.971 80.1832 149.852 80.1832C149.726 80.1832 149.626 80.2107 149.552 80.2656C149.479 80.3205 149.43 80.3854 149.404 80.4602L148.924 80.392C148.962 80.2595 149.025 80.1487 149.112 80.0597C149.199 79.9697 149.306 79.9025 149.431 79.858C149.557 79.8125 149.697 79.7898 149.849 79.7898C149.954 79.7898 150.059 79.8021 150.163 79.8267C150.267 79.8513 150.362 79.892 150.449 79.9489C150.535 80.0047 150.604 80.081 150.656 80.1776C150.709 80.2741 150.735 80.3949 150.735 80.5398V82H150.241V81.7003H150.224C150.193 81.7609 150.149 81.8177 150.092 81.8707C150.036 81.9228 149.966 81.965 149.88 81.9972C149.796 82.0284 149.697 82.044 149.583 82.044ZM149.717 81.6662C149.82 81.6662 149.91 81.6458 149.985 81.6051C150.061 81.5634 150.119 81.5085 150.16 81.4403C150.202 81.3722 150.223 81.2978 150.223 81.2173V80.9602C150.207 80.9735 150.179 80.9858 150.14 80.9972C150.102 81.0085 150.06 81.0185 150.012 81.027C149.965 81.0355 149.918 81.0431 149.872 81.0497C149.825 81.0563 149.785 81.062 149.751 81.0668C149.674 81.0772 149.606 81.0942 149.545 81.1179C149.484 81.1416 149.437 81.1747 149.402 81.2173C149.367 81.259 149.349 81.313 149.349 81.3793C149.349 81.474 149.384 81.5455 149.453 81.5938C149.522 81.642 149.61 81.6662 149.717 81.6662ZM152.643 81.0824V79.8182H153.157V82H152.659V81.6122H152.636C152.587 81.7344 152.506 81.8343 152.393 81.9119C152.281 81.9896 152.144 82.0284 151.98 82.0284C151.837 82.0284 151.71 81.9967 151.6 81.9332C151.492 81.8688 151.406 81.7756 151.345 81.6534C151.283 81.5303 151.252 81.3816 151.252 81.2074V79.8182H151.767V81.1278C151.767 81.2661 151.805 81.3759 151.88 81.4574C151.956 81.5388 152.056 81.5795 152.179 81.5795C152.254 81.5795 152.328 81.5611 152.399 81.5241C152.47 81.4872 152.528 81.4323 152.574 81.3594C152.62 81.2855 152.643 81.1932 152.643 81.0824ZM154.496 82.0384C154.324 82.0384 154.171 81.9943 154.036 81.9062C153.9 81.8182 153.793 81.6903 153.714 81.5227C153.636 81.3551 153.597 81.1515 153.597 80.9119C153.597 80.6695 153.636 80.465 153.716 80.2983C153.796 80.1307 153.905 80.0043 154.041 79.919C154.178 79.8329 154.33 79.7898 154.497 79.7898C154.625 79.7898 154.73 79.8116 154.812 79.8551C154.895 79.8977 154.96 79.9493 155.009 80.0099C155.057 80.0696 155.094 80.1259 155.121 80.179H155.142V79.0909H155.658V82H155.152V81.6562H155.121C155.094 81.7093 155.056 81.7656 155.006 81.8253C154.955 81.884 154.889 81.9342 154.807 81.9759C154.724 82.0175 154.621 82.0384 154.496 82.0384ZM154.639 81.6165C154.748 81.6165 154.841 81.5871 154.918 81.5284C154.994 81.4687 155.053 81.3859 155.092 81.2798C155.132 81.1738 155.152 81.0502 155.152 80.9091C155.152 80.768 155.132 80.6454 155.092 80.5412C155.054 80.437 154.996 80.3561 154.919 80.2983C154.843 80.2405 154.75 80.2116 154.639 80.2116C154.525 80.2116 154.429 80.2415 154.352 80.3011C154.276 80.3608 154.218 80.4432 154.179 80.5483C154.14 80.6534 154.121 80.7737 154.121 80.9091C154.121 81.0455 154.14 81.1671 154.179 81.2741C154.219 81.3802 154.277 81.464 154.354 81.5256C154.431 81.5862 154.527 81.6165 154.639 81.6165ZM156.206 82V79.8182H156.72V82H156.206ZM156.464 79.5085C156.383 79.5085 156.313 79.4815 156.254 79.4276C156.195 79.3726 156.166 79.3068 156.166 79.2301C156.166 79.1525 156.195 79.0866 156.254 79.0327C156.313 78.9777 156.383 78.9503 156.464 78.9503C156.547 78.9503 156.617 78.9777 156.674 79.0327C156.733 79.0866 156.762 79.1525 156.762 79.2301C156.762 79.3068 156.733 79.3726 156.674 79.4276C156.617 79.4815 156.547 79.5085 156.464 79.5085ZM158.2 82.0426C157.987 82.0426 157.803 81.9957 157.646 81.902C157.49 81.8082 157.369 81.6771 157.283 81.5085C157.197 81.34 157.155 81.143 157.155 80.9176C157.155 80.6922 157.197 80.4948 157.283 80.3253C157.369 80.1558 157.49 80.0241 157.646 79.9304C157.803 79.8366 157.987 79.7898 158.2 79.7898C158.413 79.7898 158.598 79.8366 158.754 79.9304C158.911 80.0241 159.031 80.1558 159.116 80.3253C159.203 80.4948 159.246 80.6922 159.246 80.9176C159.246 81.143 159.203 81.34 159.116 81.5085C159.031 81.6771 158.911 81.8082 158.754 81.902C158.598 81.9957 158.413 82.0426 158.2 82.0426ZM158.203 81.6307C158.319 81.6307 158.415 81.599 158.493 81.5355C158.571 81.4711 158.628 81.3849 158.666 81.277C158.705 81.169 158.724 81.0488 158.724 80.9162C158.724 80.7827 158.705 80.6619 158.666 80.554C158.628 80.4451 158.571 80.3584 158.493 80.294C158.415 80.2296 158.319 80.1974 158.203 80.1974C158.085 80.1974 157.986 80.2296 157.908 80.294C157.83 80.3584 157.772 80.4451 157.733 80.554C157.695 80.6619 157.676 80.7827 157.676 80.9162C157.676 81.0488 157.695 81.169 157.733 81.277C157.772 81.3849 157.83 81.4711 157.908 81.5355C157.986 81.599 158.085 81.6307 158.203 81.6307ZM160.674 82V79.8182H161.189V82H160.674ZM160.933 79.5085C160.851 79.5085 160.781 79.4815 160.723 79.4276C160.664 79.3726 160.635 79.3068 160.635 79.2301C160.635 79.1525 160.664 79.0866 160.723 79.0327C160.781 78.9777 160.851 78.9503 160.933 78.9503C161.015 78.9503 161.085 78.9777 161.143 79.0327C161.202 79.0866 161.231 79.1525 161.231 79.2301C161.231 79.3068 161.202 79.3726 161.143 79.4276C161.085 79.4815 161.015 79.5085 160.933 79.5085ZM162.232 80.7216V82H161.717V79.8182H162.209V80.1889H162.234C162.285 80.0668 162.365 79.9697 162.474 79.8977C162.585 79.8258 162.722 79.7898 162.885 79.7898C163.036 79.7898 163.167 79.822 163.278 79.8864C163.391 79.9508 163.478 80.044 163.54 80.1662C163.602 80.2884 163.633 80.4366 163.632 80.6108V82H163.118V80.6903C163.118 80.5445 163.08 80.4304 163.004 80.348C162.929 80.2656 162.826 80.2244 162.693 80.2244C162.603 80.2244 162.523 80.2443 162.453 80.2841C162.384 80.3229 162.33 80.3793 162.29 80.4531C162.251 80.527 162.232 80.6165 162.232 80.7216ZM166.156 82H165.17V79.0909H166.175C166.464 79.0909 166.712 79.1491 166.92 79.2656C167.128 79.3812 167.288 79.5473 167.4 79.7642C167.512 79.9811 167.567 80.2405 167.567 80.5426C167.567 80.8456 167.511 81.1061 167.398 81.3239C167.287 81.5417 167.125 81.7088 166.914 81.8253C166.704 81.9418 166.451 82 166.156 82ZM165.697 81.544H166.13C166.333 81.544 166.502 81.5071 166.637 81.4332C166.772 81.3584 166.874 81.2472 166.942 81.0994C167.011 80.9508 167.045 80.7652 167.045 80.5426C167.045 80.3201 167.011 80.1354 166.942 79.9886C166.874 79.8409 166.773 79.7306 166.64 79.6577C166.507 79.5838 166.343 79.5469 166.146 79.5469H165.697V81.544ZM168.045 82V79.8182H168.56V82H168.045ZM168.304 79.5085C168.223 79.5085 168.152 79.4815 168.094 79.4276C168.035 79.3726 168.006 79.3068 168.006 79.2301C168.006 79.1525 168.035 79.0866 168.094 79.0327C168.152 78.9777 168.223 78.9503 168.304 78.9503C168.386 78.9503 168.456 78.9777 168.514 79.0327C168.573 79.0866 168.602 79.1525 168.602 79.2301C168.602 79.3068 168.573 79.3726 168.514 79.4276C168.456 79.4815 168.386 79.5085 168.304 79.5085ZM170.813 80.3949L170.344 80.446C170.331 80.3987 170.308 80.3542 170.275 80.3125C170.242 80.2708 170.199 80.2372 170.144 80.2116C170.089 80.1861 170.022 80.1733 169.942 80.1733C169.835 80.1733 169.745 80.1965 169.672 80.2429C169.6 80.2893 169.565 80.3494 169.566 80.4233C169.565 80.4867 169.588 80.5384 169.635 80.5781C169.684 80.6179 169.763 80.6506 169.874 80.6761L170.246 80.7557C170.453 80.8002 170.606 80.8707 170.706 80.9673C170.808 81.0639 170.859 81.1903 170.86 81.3466C170.859 81.4839 170.819 81.6051 170.739 81.7102C170.66 81.8144 170.551 81.8958 170.411 81.9545C170.271 82.0133 170.11 82.0426 169.928 82.0426C169.661 82.0426 169.446 81.9867 169.283 81.875C169.12 81.7623 169.023 81.6056 168.992 81.4048L169.493 81.3565C169.516 81.455 169.564 81.5294 169.638 81.5795C169.712 81.6297 169.808 81.6548 169.926 81.6548C170.049 81.6548 170.147 81.6297 170.221 81.5795C170.295 81.5294 170.333 81.4673 170.333 81.3935C170.333 81.331 170.309 81.2794 170.26 81.2386C170.213 81.1979 170.139 81.1667 170.039 81.1449L169.667 81.0668C169.457 81.0232 169.302 80.9498 169.202 80.8466C169.102 80.7424 169.052 80.6108 169.053 80.4517C169.052 80.3172 169.088 80.2008 169.162 80.1023C169.237 80.0028 169.341 79.9261 169.473 79.8722C169.607 79.8172 169.761 79.7898 169.935 79.7898C170.191 79.7898 170.392 79.8442 170.539 79.9531C170.686 80.062 170.778 80.2093 170.813 80.3949ZM171.284 82.8182V79.8182H171.789V80.179H171.819C171.846 80.1259 171.883 80.0696 171.931 80.0099C171.98 79.9493 172.045 79.8977 172.127 79.8551C172.21 79.8116 172.315 79.7898 172.443 79.7898C172.611 79.7898 172.763 79.8329 172.899 79.919C173.035 80.0043 173.143 80.1307 173.223 80.2983C173.303 80.465 173.343 80.6695 173.343 80.9119C173.343 81.1515 173.304 81.3551 173.225 81.5227C173.147 81.6903 173.04 81.8182 172.904 81.9062C172.769 81.9943 172.616 82.0384 172.444 82.0384C172.319 82.0384 172.216 82.0175 172.133 81.9759C172.051 81.9342 171.984 81.884 171.934 81.8253C171.885 81.7656 171.847 81.7093 171.819 81.6562H171.798V82.8182H171.284ZM171.788 80.9091C171.788 81.0502 171.808 81.1738 171.848 81.2798C171.888 81.3859 171.947 81.4687 172.022 81.5284C172.099 81.5871 172.192 81.6165 172.301 81.6165C172.414 81.6165 172.51 81.5862 172.586 81.5256C172.663 81.464 172.721 81.3802 172.76 81.2741C172.799 81.1671 172.819 81.0455 172.819 80.9091C172.819 80.7737 172.8 80.6534 172.761 80.5483C172.722 80.4432 172.664 80.3608 172.588 80.3011C172.511 80.2415 172.415 80.2116 172.301 80.2116C172.191 80.2116 172.098 80.2405 172.021 80.2983C171.944 80.3561 171.886 80.437 171.846 80.5412C171.807 80.6454 171.788 80.768 171.788 80.9091ZM174.75 82.0426C174.531 82.0426 174.342 81.9972 174.183 81.9062C174.025 81.8144 173.903 81.6847 173.818 81.517C173.733 81.3485 173.69 81.1501 173.69 80.9219C173.69 80.6974 173.733 80.5005 173.818 80.331C173.904 80.1605 174.024 80.0279 174.179 79.9332C174.333 79.8376 174.514 79.7898 174.723 79.7898C174.857 79.7898 174.984 79.8116 175.103 79.8551C175.224 79.8977 175.33 79.964 175.422 80.054C175.514 80.1439 175.587 80.2585 175.64 80.3977C175.693 80.536 175.72 80.7008 175.72 80.892V81.0497H173.931V80.7031H175.227C175.226 80.6046 175.205 80.517 175.163 80.4403C175.121 80.3627 175.063 80.3016 174.988 80.2571C174.914 80.2126 174.828 80.1903 174.73 80.1903C174.625 80.1903 174.532 80.2159 174.453 80.267C174.373 80.3172 174.311 80.3835 174.267 80.4659C174.223 80.5473 174.201 80.6368 174.2 80.7344V81.0369C174.2 81.1638 174.223 81.2727 174.27 81.3636C174.316 81.4536 174.381 81.5227 174.464 81.571C174.547 81.6184 174.645 81.642 174.757 81.642C174.832 81.642 174.899 81.6316 174.96 81.6108C175.02 81.589 175.073 81.5573 175.118 81.5156C175.162 81.474 175.196 81.4223 175.218 81.3608L175.699 81.4148C175.668 81.5417 175.61 81.6525 175.525 81.7472C175.441 81.8409 175.333 81.9138 175.201 81.9659C175.07 82.017 174.919 82.0426 174.75 82.0426ZM176.155 82V79.8182H176.653V80.1818H176.676C176.716 80.0559 176.784 79.9588 176.881 79.8906C176.978 79.8215 177.089 79.7869 177.214 79.7869C177.243 79.7869 177.275 79.7884 177.31 79.7912C177.346 79.7931 177.375 79.7964 177.399 79.8011V80.2741C177.377 80.2666 177.343 80.2599 177.295 80.2543C177.249 80.2476 177.204 80.2443 177.161 80.2443C177.067 80.2443 176.982 80.2647 176.908 80.3054C176.834 80.3452 176.776 80.4006 176.733 80.4716C176.69 80.5426 176.669 80.6245 176.669 80.7173V82H176.155ZM179.465 80.3949L178.996 80.446C178.983 80.3987 178.96 80.3542 178.927 80.3125C178.895 80.2708 178.851 80.2372 178.796 80.2116C178.741 80.1861 178.674 80.1733 178.594 80.1733C178.487 80.1733 178.397 80.1965 178.325 80.2429C178.253 80.2893 178.217 80.3494 178.218 80.4233C178.217 80.4867 178.24 80.5384 178.288 80.5781C178.336 80.6179 178.415 80.6506 178.526 80.6761L178.898 80.7557C179.105 80.8002 179.258 80.8707 179.359 80.9673C179.46 81.0639 179.511 81.1903 179.512 81.3466C179.511 81.4839 179.471 81.6051 179.391 81.7102C179.313 81.8144 179.203 81.8958 179.063 81.9545C178.923 82.0133 178.762 82.0426 178.58 82.0426C178.313 82.0426 178.098 81.9867 177.935 81.875C177.772 81.7623 177.675 81.6056 177.644 81.4048L178.146 81.3565C178.168 81.455 178.217 81.5294 178.29 81.5795C178.364 81.6297 178.46 81.6548 178.579 81.6548C178.701 81.6548 178.799 81.6297 178.873 81.5795C178.948 81.5294 178.985 81.4673 178.985 81.3935C178.985 81.331 178.961 81.2794 178.913 81.2386C178.865 81.1979 178.791 81.1667 178.691 81.1449L178.319 81.0668C178.11 81.0232 177.955 80.9498 177.854 80.8466C177.754 80.7424 177.704 80.6108 177.705 80.4517C177.704 80.3172 177.741 80.2008 177.815 80.1023C177.889 80.0028 177.993 79.9261 178.126 79.8722C178.259 79.8172 178.413 79.7898 178.587 79.7898C178.843 79.7898 179.044 79.8442 179.191 79.9531C179.339 80.062 179.43 80.2093 179.465 80.3949ZM180.902 82.0426C180.683 82.0426 180.494 81.9972 180.335 81.9062C180.177 81.8144 180.055 81.6847 179.97 81.517C179.885 81.3485 179.842 81.1501 179.842 80.9219C179.842 80.6974 179.885 80.5005 179.97 80.331C180.056 80.1605 180.177 80.0279 180.331 79.9332C180.485 79.8376 180.667 79.7898 180.875 79.7898C181.009 79.7898 181.136 79.8116 181.256 79.8551C181.376 79.8977 181.482 79.964 181.574 80.054C181.667 80.1439 181.74 80.2585 181.793 80.3977C181.846 80.536 181.872 80.7008 181.872 80.892V81.0497H180.084V80.7031H181.379C181.378 80.6046 181.357 80.517 181.315 80.4403C181.274 80.3627 181.215 80.3016 181.141 80.2571C181.067 80.2126 180.981 80.1903 180.882 80.1903C180.777 80.1903 180.685 80.2159 180.605 80.267C180.526 80.3172 180.464 80.3835 180.419 80.4659C180.375 80.5473 180.353 80.6368 180.352 80.7344V81.0369C180.352 81.1638 180.375 81.2727 180.422 81.3636C180.468 81.4536 180.533 81.5227 180.616 81.571C180.7 81.6184 180.797 81.642 180.909 81.642C180.984 81.642 181.052 81.6316 181.112 81.6108C181.173 81.589 181.225 81.5573 181.27 81.5156C181.314 81.474 181.348 81.4223 181.371 81.3608L181.851 81.4148C181.821 81.5417 181.763 81.6525 181.678 81.7472C181.593 81.8409 181.485 81.9138 181.354 81.9659C181.222 82.017 181.071 82.0426 180.902 82.0426Z" fill="#3D3D3D"/>
<line x1="109.5" y1="26" x2="109.5" y2="30" stroke="white"/>
<line x1="111.5" y1="22" x2="111.5" y2="34" stroke="white"/>
<line x1="113.5" y1="25" x2="113.5" y2="31" stroke="white"/>
<line x1="115.5" y1="24" x2="115.5" y2="31" stroke="white"/>
<line x1="117.5" y1="25" x2="117.5" y2="31" stroke="white"/>
<line x1="119.5" y1="24" x2="119.5" y2="33" stroke="white"/>
<line x1="121.5" y1="25" x2="121.5" y2="31" stroke="white"/>
<line x1="123.5" y1="24" x2="123.5" y2="31" stroke="white"/>
<line x1="125.5" y1="24" x2="125.5" y2="32" stroke="white"/>
<line x1="127.5" y1="23" x2="127.5" y2="32" stroke="white"/>
<line x1="129.5" y1="23" x2="129.5" y2="33" stroke="white"/>
<line x1="131.5" y1="22" x2="131.5" y2="34" stroke="white"/>
<line x1="133.5" y1="21" x2="133.5" y2="35" stroke="white"/>
<line x1="135.5" y1="20" x2="135.5" y2="36" stroke="white"/>
<line x1="137.5" y1="19" x2="137.5" y2="37" stroke="white"/>
<line x1="139.5" y1="20" x2="139.5" y2="36" stroke="white"/>
<line x1="141.5" y1="22" x2="141.5" y2="34" stroke="white"/>
<line x1="143.5" y1="23" x2="143.5" y2="33" stroke="white"/>
<line x1="145.5" y1="24" x2="145.5" y2="32" stroke="white"/>
<line x1="147.5" y1="25" x2="147.5" y2="31" stroke="white"/>
<line x1="149.5" y1="26" x2="149.5" y2="30" stroke="white"/>
<line x1="151.5" y1="27" x2="151.5" y2="29" stroke="white"/>
<line x1="153.5" y1="26" x2="153.5" y2="30" stroke="white"/>
<line x1="155.5" y1="26" x2="155.5" y2="30" stroke="white"/>
<line x1="157.5" y1="26" x2="157.5" y2="30" stroke="white"/>
<line x1="159.5" y1="26" x2="159.5" y2="30" stroke="white"/>
<line x1="161.5" y1="26" x2="161.5" y2="30" stroke="white"/>
<line x1="163.5" y1="26" x2="163.5" y2="30" stroke="white"/>
<line x1="165.5" y1="26" x2="165.5" y2="30" stroke="white"/>
<line x1="167.5" y1="26" x2="167.5" y2="30" stroke="white"/>
<line x1="169.5" y1="26" x2="169.5" y2="30" stroke="white"/>
<line x1="171.5" y1="26" x2="171.5" y2="30" stroke="white"/>
<line x1="173.5" y1="25" x2="173.5" y2="31" stroke="white"/>
<line x1="175.5" y1="24" x2="175.5" y2="32" stroke="white"/>
<line x1="177.5" y1="23" x2="177.5" y2="33" stroke="white"/>
<line x1="179.5" y1="22" x2="179.5" y2="34" stroke="white"/>
<line x1="181.5" y1="21" x2="181.5" y2="35" stroke="white"/>
<line x1="183.5" y1="22" x2="183.5" y2="34" stroke="white"/>
<line x1="185.5" y1="22" x2="185.5" y2="34" stroke="white"/>
<line x1="187.5" y1="22" x2="187.5" y2="34" stroke="white"/>
<line x1="189.5" y1="23" x2="189.5" y2="33" stroke="white"/>
<line x1="191.5" y1="23" x2="191.5" y2="33" stroke="white"/>
<line x1="193.5" y1="24" x2="193.5" y2="32" stroke="white"/>
<line x1="195.5" y1="24" x2="195.5" y2="32" stroke="white"/>
<line x1="197.5" y1="25" x2="197.5" y2="31" stroke="white"/>
<line x1="199.5" y1="26" x2="199.5" y2="30" stroke="white"/>
<line x1="201.5" y1="27" x2="201.5" y2="29" stroke="white"/>
<line x1="203.5" y1="25" x2="203.5" y2="31" stroke="white"/>
<line x1="205.5" y1="25" x2="205.5" y2="31" stroke="white"/>
<rect x="104" y="100" width="107" height="23" rx="5" fill="#FF623D"/>
<line x1="109.5" y1="110" x2="109.5" y2="114" stroke="white"/>
<line x1="111.5" y1="106" x2="111.5" y2="118" stroke="white"/>
<line x1="113.5" y1="109" x2="113.5" y2="115" stroke="white"/>
<line x1="115.5" y1="108" x2="115.5" y2="115" stroke="white"/>
<line x1="117.5" y1="109" x2="117.5" y2="115" stroke="white"/>
<line x1="119.5" y1="108" x2="119.5" y2="117" stroke="white"/>
<line x1="121.5" y1="109" x2="121.5" y2="115" stroke="white"/>
<line x1="123.5" y1="108" x2="123.5" y2="115" stroke="white"/>
<line x1="125.5" y1="108" x2="125.5" y2="116" stroke="white"/>
<line x1="127.5" y1="107" x2="127.5" y2="116" stroke="white"/>
<line x1="129.5" y1="107" x2="129.5" y2="117" stroke="white"/>
<line x1="131.5" y1="106" x2="131.5" y2="118" stroke="white"/>
<line x1="133.5" y1="105" x2="133.5" y2="119" stroke="white"/>
<line x1="135.5" y1="104" x2="135.5" y2="120" stroke="white"/>
<line x1="137.5" y1="103" x2="137.5" y2="121" stroke="white"/>
<line x1="139.5" y1="104" x2="139.5" y2="120" stroke="white"/>
<line x1="141.5" y1="106" x2="141.5" y2="118" stroke="white"/>
<line x1="143.5" y1="107" x2="143.5" y2="117" stroke="white"/>
<line x1="145.5" y1="108" x2="145.5" y2="116" stroke="white"/>
<line x1="147.5" y1="109" x2="147.5" y2="115" stroke="white"/>
<line x1="149.5" y1="110" x2="149.5" y2="114" stroke="white"/>
<line x1="151.5" y1="111" x2="151.5" y2="113" stroke="white"/>
<line x1="153.5" y1="110" x2="153.5" y2="114" stroke="white"/>
<line x1="155.5" y1="110" x2="155.5" y2="114" stroke="white"/>
<line x1="157.5" y1="110" x2="157.5" y2="114" stroke="white"/>
<line x1="159.5" y1="110" x2="159.5" y2="114" stroke="white"/>
<line x1="161.5" y1="110" x2="161.5" y2="114" stroke="white"/>
<line x1="163.5" y1="110" x2="163.5" y2="114" stroke="white"/>
<line x1="165.5" y1="110" x2="165.5" y2="114" stroke="white"/>
<line x1="167.5" y1="110" x2="167.5" y2="114" stroke="white"/>
<line x1="169.5" y1="110" x2="169.5" y2="114" stroke="white"/>
<line x1="171.5" y1="110" x2="171.5" y2="114" stroke="white"/>
<line x1="173.5" y1="109" x2="173.5" y2="115" stroke="white"/>
<line x1="175.5" y1="108" x2="175.5" y2="116" stroke="white"/>
<line x1="177.5" y1="107" x2="177.5" y2="117" stroke="white"/>
<line x1="179.5" y1="106" x2="179.5" y2="118" stroke="white"/>
<line x1="181.5" y1="105" x2="181.5" y2="119" stroke="white"/>
<line x1="183.5" y1="106" x2="183.5" y2="118" stroke="white"/>
<line x1="185.5" y1="106" x2="185.5" y2="118" stroke="white"/>
<line x1="187.5" y1="106" x2="187.5" y2="118" stroke="white"/>
<line x1="189.5" y1="107" x2="189.5" y2="117" stroke="white"/>
<line x1="191.5" y1="107" x2="191.5" y2="117" stroke="white"/>
<line x1="193.5" y1="108" x2="193.5" y2="116" stroke="white"/>
<line x1="195.5" y1="108" x2="195.5" y2="116" stroke="white"/>
<line x1="197.5" y1="109" x2="197.5" y2="115" stroke="white"/>
<line x1="199.5" y1="110" x2="199.5" y2="114" stroke="white"/>
<line x1="201.5" y1="111" x2="201.5" y2="113" stroke="white"/>
<line x1="203.5" y1="109" x2="203.5" y2="115" stroke="white"/>
<line x1="205.5" y1="109" x2="205.5" y2="115" stroke="white"/>
<rect x="148.25" y="63.25" width="10.5" height="4.5" rx="0.75" fill="white" stroke="#6D6D6D" stroke-width="0.5"/>
<rect x="154.25" y="66.25" width="10.5" height="4.5" rx="0.75" fill="white" stroke="#6D6D6D" stroke-width="0.5" stroke-dasharray="1.2 1.2"/>
<rect x="104.5" y="129.5" width="106" height="49" rx="9.5" fill="white" stroke="#DADADA" stroke-dasharray="3 3"/>
<path d="M134.287 166V163.091H135.378C135.601 163.091 135.789 163.13 135.94 163.207C136.093 163.285 136.208 163.394 136.286 163.534C136.364 163.673 136.403 163.836 136.403 164.021C136.403 164.208 136.364 164.37 136.284 164.507C136.205 164.643 136.089 164.749 135.936 164.824C135.783 164.898 135.594 164.935 135.371 164.935H134.594V164.497H135.3C135.43 164.497 135.537 164.479 135.621 164.443C135.704 164.406 135.766 164.353 135.805 164.283C135.846 164.212 135.866 164.125 135.866 164.021C135.866 163.918 135.846 163.83 135.805 163.757C135.765 163.683 135.703 163.627 135.619 163.589C135.536 163.551 135.429 163.531 135.297 163.531H134.814V166H134.287ZM135.79 164.682L136.51 166H135.922L135.214 164.682H135.79ZM137.8 166.043C137.582 166.043 137.393 165.997 137.234 165.906C137.076 165.814 136.954 165.685 136.869 165.517C136.783 165.348 136.741 165.15 136.741 164.922C136.741 164.697 136.783 164.5 136.869 164.331C136.955 164.161 137.075 164.028 137.229 163.933C137.384 163.838 137.565 163.79 137.773 163.79C137.908 163.79 138.035 163.812 138.154 163.855C138.274 163.898 138.38 163.964 138.472 164.054C138.565 164.144 138.638 164.259 138.691 164.398C138.744 164.536 138.771 164.701 138.771 164.892V165.05H136.982V164.703H138.278C138.277 164.605 138.255 164.517 138.214 164.44C138.172 164.363 138.114 164.302 138.039 164.257C137.965 164.213 137.879 164.19 137.781 164.19C137.675 164.19 137.583 164.216 137.504 164.267C137.424 164.317 137.362 164.384 137.317 164.466C137.274 164.547 137.252 164.637 137.251 164.734V165.037C137.251 165.164 137.274 165.273 137.32 165.364C137.367 165.454 137.432 165.523 137.515 165.571C137.598 165.618 137.696 165.642 137.808 165.642C137.882 165.642 137.95 165.632 138.011 165.611C138.071 165.589 138.124 165.557 138.168 165.516C138.213 165.474 138.246 165.422 138.269 165.361L138.749 165.415C138.719 165.542 138.661 165.652 138.576 165.747C138.492 165.841 138.384 165.914 138.252 165.966C138.121 166.017 137.97 166.043 137.8 166.043ZM140.157 166.043C139.94 166.043 139.752 165.995 139.596 165.899C139.441 165.804 139.321 165.671 139.237 165.503C139.154 165.333 139.112 165.138 139.112 164.918C139.112 164.696 139.154 164.5 139.24 164.331C139.325 164.161 139.445 164.028 139.6 163.933C139.757 163.838 139.941 163.79 140.154 163.79C140.332 163.79 140.488 163.822 140.625 163.888C140.762 163.952 140.871 164.044 140.953 164.162C141.034 164.279 141.081 164.417 141.092 164.574H140.6C140.581 164.469 140.533 164.381 140.458 164.311C140.385 164.24 140.286 164.205 140.162 164.205C140.056 164.205 139.964 164.233 139.885 164.29C139.805 164.346 139.743 164.426 139.699 164.531C139.655 164.636 139.633 164.762 139.633 164.909C139.633 165.058 139.655 165.186 139.699 165.293C139.742 165.399 139.803 165.481 139.882 165.538C139.961 165.595 140.055 165.624 140.162 165.624C140.237 165.624 140.305 165.609 140.365 165.581C140.425 165.552 140.476 165.509 140.517 165.455C140.557 165.4 140.585 165.333 140.6 165.254H141.092C141.08 165.409 141.034 165.545 140.956 165.665C140.877 165.783 140.77 165.876 140.635 165.943C140.499 166.009 140.34 166.043 140.157 166.043ZM142.466 166.043C142.253 166.043 142.068 165.996 141.912 165.902C141.756 165.808 141.634 165.677 141.548 165.509C141.463 165.34 141.42 165.143 141.42 164.918C141.42 164.692 141.463 164.495 141.548 164.325C141.634 164.156 141.756 164.024 141.912 163.93C142.068 163.837 142.253 163.79 142.466 163.79C142.679 163.79 142.864 163.837 143.02 163.93C143.176 164.024 143.297 164.156 143.382 164.325C143.468 164.495 143.511 164.692 143.511 164.918C143.511 165.143 143.468 165.34 143.382 165.509C143.297 165.677 143.176 165.808 143.02 165.902C142.864 165.996 142.679 166.043 142.466 166.043ZM142.469 165.631C142.584 165.631 142.681 165.599 142.759 165.536C142.836 165.471 142.894 165.385 142.932 165.277C142.971 165.169 142.99 165.049 142.99 164.916C142.99 164.783 142.971 164.662 142.932 164.554C142.894 164.445 142.836 164.358 142.759 164.294C142.681 164.23 142.584 164.197 142.469 164.197C142.35 164.197 142.252 164.23 142.173 164.294C142.096 164.358 142.037 164.445 141.999 164.554C141.961 164.662 141.942 164.783 141.942 164.916C141.942 165.049 141.961 165.169 141.999 165.277C142.037 165.385 142.096 165.471 142.173 165.536C142.252 165.599 142.35 165.631 142.469 165.631ZM143.948 166V163.818H144.446V164.182H144.469C144.509 164.056 144.577 163.959 144.674 163.891C144.771 163.821 144.882 163.787 145.007 163.787C145.036 163.787 145.068 163.788 145.103 163.791C145.139 163.793 145.168 163.796 145.192 163.801V164.274C145.17 164.267 145.136 164.26 145.088 164.254C145.042 164.248 144.997 164.244 144.953 164.244C144.86 164.244 144.775 164.265 144.701 164.305C144.627 164.345 144.569 164.401 144.526 164.472C144.483 164.543 144.462 164.625 144.462 164.717V166H143.948ZM146.254 166.038C146.082 166.038 145.929 165.994 145.793 165.906C145.658 165.818 145.551 165.69 145.472 165.523C145.394 165.355 145.354 165.152 145.354 164.912C145.354 164.67 145.394 164.465 145.474 164.298C145.554 164.131 145.663 164.004 145.799 163.919C145.935 163.833 146.087 163.79 146.255 163.79C146.383 163.79 146.488 163.812 146.57 163.855C146.653 163.898 146.718 163.949 146.766 164.01C146.815 164.07 146.852 164.126 146.879 164.179H146.9V163.091H147.415V166H146.91V165.656H146.879C146.852 165.709 146.814 165.766 146.763 165.825C146.713 165.884 146.647 165.934 146.565 165.976C146.482 166.018 146.379 166.038 146.254 166.038ZM146.397 165.616C146.506 165.616 146.599 165.587 146.675 165.528C146.752 165.469 146.81 165.386 146.85 165.28C146.89 165.174 146.91 165.05 146.91 164.909C146.91 164.768 146.89 164.645 146.85 164.541C146.811 164.437 146.754 164.356 146.677 164.298C146.601 164.241 146.508 164.212 146.397 164.212C146.282 164.212 146.187 164.241 146.11 164.301C146.033 164.361 145.976 164.443 145.937 164.548C145.898 164.653 145.879 164.774 145.879 164.909C145.879 165.045 145.898 165.167 145.937 165.274C145.977 165.38 146.035 165.464 146.112 165.526C146.189 165.586 146.284 165.616 146.397 165.616ZM149.583 166.044C149.445 166.044 149.321 166.019 149.21 165.97C149.1 165.92 149.013 165.846 148.949 165.749C148.885 165.651 148.853 165.531 148.853 165.388C148.853 165.265 148.876 165.163 148.922 165.082C148.967 165.002 149.029 164.938 149.108 164.889C149.186 164.841 149.275 164.804 149.373 164.78C149.473 164.754 149.575 164.736 149.681 164.724C149.809 164.711 149.913 164.699 149.993 164.689C150.072 164.678 150.13 164.661 150.166 164.638C150.203 164.614 150.221 164.578 150.221 164.528V164.52C150.221 164.413 150.19 164.33 150.126 164.271C150.063 164.213 149.971 164.183 149.852 164.183C149.726 164.183 149.626 164.211 149.552 164.266C149.479 164.321 149.43 164.385 149.404 164.46L148.924 164.392C148.962 164.259 149.025 164.149 149.112 164.06C149.199 163.97 149.306 163.902 149.431 163.858C149.557 163.812 149.697 163.79 149.849 163.79C149.954 163.79 150.059 163.802 150.163 163.827C150.267 163.851 150.362 163.892 150.449 163.949C150.535 164.005 150.604 164.081 150.656 164.178C150.709 164.274 150.735 164.395 150.735 164.54V166H150.241V165.7H150.224C150.193 165.761 150.149 165.818 150.092 165.871C150.036 165.923 149.966 165.965 149.88 165.997C149.796 166.028 149.697 166.044 149.583 166.044ZM149.717 165.666C149.82 165.666 149.91 165.646 149.985 165.605C150.061 165.563 150.119 165.509 150.16 165.44C150.202 165.372 150.223 165.298 150.223 165.217V164.96C150.207 164.973 150.179 164.986 150.14 164.997C150.102 165.009 150.06 165.018 150.012 165.027C149.965 165.036 149.918 165.043 149.872 165.05C149.825 165.056 149.785 165.062 149.751 165.067C149.674 165.077 149.606 165.094 149.545 165.118C149.484 165.142 149.437 165.175 149.402 165.217C149.367 165.259 149.349 165.313 149.349 165.379C149.349 165.474 149.384 165.545 149.453 165.594C149.522 165.642 149.61 165.666 149.717 165.666ZM152.643 165.082V163.818H153.157V166H152.659V165.612H152.636C152.587 165.734 152.506 165.834 152.393 165.912C152.281 165.99 152.144 166.028 151.98 166.028C151.837 166.028 151.71 165.997 151.6 165.933C151.492 165.869 151.406 165.776 151.345 165.653C151.283 165.53 151.252 165.382 151.252 165.207V163.818H151.767V165.128C151.767 165.266 151.805 165.376 151.88 165.457C151.956 165.539 152.056 165.58 152.179 165.58C152.254 165.58 152.328 165.561 152.399 165.524C152.47 165.487 152.528 165.432 152.574 165.359C152.62 165.286 152.643 165.193 152.643 165.082ZM154.496 166.038C154.324 166.038 154.171 165.994 154.036 165.906C153.9 165.818 153.793 165.69 153.714 165.523C153.636 165.355 153.597 165.152 153.597 164.912C153.597 164.67 153.636 164.465 153.716 164.298C153.796 164.131 153.905 164.004 154.041 163.919C154.178 163.833 154.33 163.79 154.497 163.79C154.625 163.79 154.73 163.812 154.812 163.855C154.895 163.898 154.96 163.949 155.009 164.01C155.057 164.07 155.094 164.126 155.121 164.179H155.142V163.091H155.658V166H155.152V165.656H155.121C155.094 165.709 155.056 165.766 155.006 165.825C154.955 165.884 154.889 165.934 154.807 165.976C154.724 166.018 154.621 166.038 154.496 166.038ZM154.639 165.616C154.748 165.616 154.841 165.587 154.918 165.528C154.994 165.469 155.053 165.386 155.092 165.28C155.132 165.174 155.152 165.05 155.152 164.909C155.152 164.768 155.132 164.645 155.092 164.541C155.054 164.437 154.996 164.356 154.919 164.298C154.843 164.241 154.75 164.212 154.639 164.212C154.525 164.212 154.429 164.241 154.352 164.301C154.276 164.361 154.218 164.443 154.179 164.548C154.14 164.653 154.121 164.774 154.121 164.909C154.121 165.045 154.14 165.167 154.179 165.274C154.219 165.38 154.277 165.464 154.354 165.526C154.431 165.586 154.527 165.616 154.639 165.616ZM156.206 166V163.818H156.72V166H156.206ZM156.464 163.509C156.383 163.509 156.313 163.482 156.254 163.428C156.195 163.373 156.166 163.307 156.166 163.23C156.166 163.152 156.195 163.087 156.254 163.033C156.313 162.978 156.383 162.95 156.464 162.95C156.547 162.95 156.617 162.978 156.674 163.033C156.733 163.087 156.762 163.152 156.762 163.23C156.762 163.307 156.733 163.373 156.674 163.428C156.617 163.482 156.547 163.509 156.464 163.509ZM158.2 166.043C157.987 166.043 157.803 165.996 157.646 165.902C157.49 165.808 157.369 165.677 157.283 165.509C157.197 165.34 157.155 165.143 157.155 164.918C157.155 164.692 157.197 164.495 157.283 164.325C157.369 164.156 157.49 164.024 157.646 163.93C157.803 163.837 157.987 163.79 158.2 163.79C158.413 163.79 158.598 163.837 158.754 163.93C158.911 164.024 159.031 164.156 159.116 164.325C159.203 164.495 159.246 164.692 159.246 164.918C159.246 165.143 159.203 165.34 159.116 165.509C159.031 165.677 158.911 165.808 158.754 165.902C158.598 165.996 158.413 166.043 158.2 166.043ZM158.203 165.631C158.319 165.631 158.415 165.599 158.493 165.536C158.571 165.471 158.628 165.385 158.666 165.277C158.705 165.169 158.724 165.049 158.724 164.916C158.724 164.783 158.705 164.662 158.666 164.554C158.628 164.445 158.571 164.358 158.493 164.294C158.415 164.23 158.319 164.197 158.203 164.197C158.085 164.197 157.986 164.23 157.908 164.294C157.83 164.358 157.772 164.445 157.733 164.554C157.695 164.662 157.676 164.783 157.676 164.916C157.676 165.049 157.695 165.169 157.733 165.277C157.772 165.385 157.83 165.471 157.908 165.536C157.986 165.599 158.085 165.631 158.203 165.631ZM160.674 166V163.818H161.189V166H160.674ZM160.933 163.509C160.851 163.509 160.781 163.482 160.723 163.428C160.664 163.373 160.635 163.307 160.635 163.23C160.635 163.152 160.664 163.087 160.723 163.033C160.781 162.978 160.851 162.95 160.933 162.95C161.015 162.95 161.085 162.978 161.143 163.033C161.202 163.087 161.231 163.152 161.231 163.23C161.231 163.307 161.202 163.373 161.143 163.428C161.085 163.482 161.015 163.509 160.933 163.509ZM162.232 164.722V166H161.717V163.818H162.209V164.189H162.234C162.285 164.067 162.365 163.97 162.474 163.898C162.585 163.826 162.722 163.79 162.885 163.79C163.036 163.79 163.167 163.822 163.278 163.886C163.391 163.951 163.478 164.044 163.54 164.166C163.602 164.288 163.633 164.437 163.632 164.611V166H163.118V164.69C163.118 164.545 163.08 164.43 163.004 164.348C162.929 164.266 162.826 164.224 162.693 164.224C162.603 164.224 162.523 164.244 162.453 164.284C162.384 164.323 162.33 164.379 162.29 164.453C162.251 164.527 162.232 164.616 162.232 164.722ZM166.156 166H165.17V163.091H166.175C166.464 163.091 166.712 163.149 166.92 163.266C167.128 163.381 167.288 163.547 167.4 163.764C167.512 163.981 167.567 164.241 167.567 164.543C167.567 164.846 167.511 165.106 167.398 165.324C167.287 165.542 167.125 165.709 166.914 165.825C166.704 165.942 166.451 166 166.156 166ZM165.697 165.544H166.13C166.333 165.544 166.502 165.507 166.637 165.433C166.772 165.358 166.874 165.247 166.942 165.099C167.011 164.951 167.045 164.765 167.045 164.543C167.045 164.32 167.011 164.135 166.942 163.989C166.874 163.841 166.773 163.731 166.64 163.658C166.507 163.584 166.343 163.547 166.146 163.547H165.697V165.544ZM168.045 166V163.818H168.56V166H168.045ZM168.304 163.509C168.223 163.509 168.152 163.482 168.094 163.428C168.035 163.373 168.006 163.307 168.006 163.23C168.006 163.152 168.035 163.087 168.094 163.033C168.152 162.978 168.223 162.95 168.304 162.95C168.386 162.95 168.456 162.978 168.514 163.033C168.573 163.087 168.602 163.152 168.602 163.23C168.602 163.307 168.573 163.373 168.514 163.428C168.456 163.482 168.386 163.509 168.304 163.509ZM170.813 164.395L170.344 164.446C170.331 164.399 170.308 164.354 170.275 164.312C170.242 164.271 170.199 164.237 170.144 164.212C170.089 164.186 170.022 164.173 169.942 164.173C169.835 164.173 169.745 164.196 169.672 164.243C169.6 164.289 169.565 164.349 169.566 164.423C169.565 164.487 169.588 164.538 169.635 164.578C169.684 164.618 169.763 164.651 169.874 164.676L170.246 164.756C170.453 164.8 170.606 164.871 170.706 164.967C170.808 165.064 170.859 165.19 170.86 165.347C170.859 165.484 170.819 165.605 170.739 165.71C170.66 165.814 170.551 165.896 170.411 165.955C170.271 166.013 170.11 166.043 169.928 166.043C169.661 166.043 169.446 165.987 169.283 165.875C169.12 165.762 169.023 165.606 168.992 165.405L169.493 165.357C169.516 165.455 169.564 165.529 169.638 165.58C169.712 165.63 169.808 165.655 169.926 165.655C170.049 165.655 170.147 165.63 170.221 165.58C170.295 165.529 170.333 165.467 170.333 165.393C170.333 165.331 170.309 165.279 170.26 165.239C170.213 165.198 170.139 165.167 170.039 165.145L169.667 165.067C169.457 165.023 169.302 164.95 169.202 164.847C169.102 164.742 169.052 164.611 169.053 164.452C169.052 164.317 169.088 164.201 169.162 164.102C169.237 164.003 169.341 163.926 169.473 163.872C169.607 163.817 169.761 163.79 169.935 163.79C170.191 163.79 170.392 163.844 170.539 163.953C170.686 164.062 170.778 164.209 170.813 164.395ZM171.284 166.818V163.818H171.789V164.179H171.819C171.846 164.126 171.883 164.07 171.931 164.01C171.98 163.949 172.045 163.898 172.127 163.855C172.21 163.812 172.315 163.79 172.443 163.79C172.611 163.79 172.763 163.833 172.899 163.919C173.035 164.004 173.143 164.131 173.223 164.298C173.303 164.465 173.343 164.67 173.343 164.912C173.343 165.152 173.304 165.355 173.225 165.523C173.147 165.69 173.04 165.818 172.904 165.906C172.769 165.994 172.616 166.038 172.444 166.038C172.319 166.038 172.216 166.018 172.133 165.976C172.051 165.934 171.984 165.884 171.934 165.825C171.885 165.766 171.847 165.709 171.819 165.656H171.798V166.818H171.284ZM171.788 164.909C171.788 165.05 171.808 165.174 171.848 165.28C171.888 165.386 171.947 165.469 172.022 165.528C172.099 165.587 172.192 165.616 172.301 165.616C172.414 165.616 172.51 165.586 172.586 165.526C172.663 165.464 172.721 165.38 172.76 165.274C172.799 165.167 172.819 165.045 172.819 164.909C172.819 164.774 172.8 164.653 172.761 164.548C172.722 164.443 172.664 164.361 172.588 164.301C172.511 164.241 172.415 164.212 172.301 164.212C172.191 164.212 172.098 164.241 172.021 164.298C171.944 164.356 171.886 164.437 171.846 164.541C171.807 164.645 171.788 164.768 171.788 164.909ZM174.75 166.043C174.531 166.043 174.342 165.997 174.183 165.906C174.025 165.814 173.903 165.685 173.818 165.517C173.733 165.348 173.69 165.15 173.69 164.922C173.69 164.697 173.733 164.5 173.818 164.331C173.904 164.161 174.024 164.028 174.179 163.933C174.333 163.838 174.514 163.79 174.723 163.79C174.857 163.79 174.984 163.812 175.103 163.855C175.224 163.898 175.33 163.964 175.422 164.054C175.514 164.144 175.587 164.259 175.64 164.398C175.693 164.536 175.72 164.701 175.72 164.892V165.05H173.931V164.703H175.227C175.226 164.605 175.205 164.517 175.163 164.44C175.121 164.363 175.063 164.302 174.988 164.257C174.914 164.213 174.828 164.19 174.73 164.19C174.625 164.19 174.532 164.216 174.453 164.267C174.373 164.317 174.311 164.384 174.267 164.466C174.223 164.547 174.201 164.637 174.2 164.734V165.037C174.2 165.164 174.223 165.273 174.27 165.364C174.316 165.454 174.381 165.523 174.464 165.571C174.547 165.618 174.645 165.642 174.757 165.642C174.832 165.642 174.899 165.632 174.96 165.611C175.02 165.589 175.073 165.557 175.118 165.516C175.162 165.474 175.196 165.422 175.218 165.361L175.699 165.415C175.668 165.542 175.61 165.652 175.525 165.747C175.441 165.841 175.333 165.914 175.201 165.966C175.07 166.017 174.919 166.043 174.75 166.043ZM176.155 166V163.818H176.653V164.182H176.676C176.716 164.056 176.784 163.959 176.881 163.891C176.978 163.821 177.089 163.787 177.214 163.787C177.243 163.787 177.275 163.788 177.31 163.791C177.346 163.793 177.375 163.796 177.399 163.801V164.274C177.377 164.267 177.343 164.26 177.295 164.254C177.249 164.248 177.204 164.244 177.161 164.244C177.067 164.244 176.982 164.265 176.908 164.305C176.834 164.345 176.776 164.401 176.733 164.472C176.69 164.543 176.669 164.625 176.669 164.717V166H176.155ZM179.465 164.395L178.996 164.446C178.983 164.399 178.96 164.354 178.927 164.312C178.895 164.271 178.851 164.237 178.796 164.212C178.741 164.186 178.674 164.173 178.594 164.173C178.487 164.173 178.397 164.196 178.325 164.243C178.253 164.289 178.217 164.349 178.218 164.423C178.217 164.487 178.24 164.538 178.288 164.578C178.336 164.618 178.415 164.651 178.526 164.676L178.898 164.756C179.105 164.8 179.258 164.871 179.359 164.967C179.46 165.064 179.511 165.19 179.512 165.347C179.511 165.484 179.471 165.605 179.391 165.71C179.313 165.814 179.203 165.896 179.063 165.955C178.923 166.013 178.762 166.043 178.58 166.043C178.313 166.043 178.098 165.987 177.935 165.875C177.772 165.762 177.675 165.606 177.644 165.405L178.146 165.357C178.168 165.455 178.217 165.529 178.29 165.58C178.364 165.63 178.46 165.655 178.579 165.655C178.701 165.655 178.799 165.63 178.873 165.58C178.948 165.529 178.985 165.467 178.985 165.393C178.985 165.331 178.961 165.279 178.913 165.239C178.865 165.198 178.791 165.167 178.691 165.145L178.319 165.067C178.11 165.023 177.955 164.95 177.854 164.847C177.754 164.742 177.704 164.611 177.705 164.452C177.704 164.317 177.741 164.201 177.815 164.102C177.889 164.003 177.993 163.926 178.126 163.872C178.259 163.817 178.413 163.79 178.587 163.79C178.843 163.79 179.044 163.844 179.191 163.953C179.339 164.062 179.43 164.209 179.465 164.395ZM180.902 166.043C180.683 166.043 180.494 165.997 180.335 165.906C180.177 165.814 180.055 165.685 179.97 165.517C179.885 165.348 179.842 165.15 179.842 164.922C179.842 164.697 179.885 164.5 179.97 164.331C180.056 164.161 180.177 164.028 180.331 163.933C180.485 163.838 180.667 163.79 180.875 163.79C181.009 163.79 181.136 163.812 181.256 163.855C181.376 163.898 181.482 163.964 181.574 164.054C181.667 164.144 181.74 164.259 181.793 164.398C181.846 164.536 181.872 164.701 181.872 164.892V165.05H180.084V164.703H181.379C181.378 164.605 181.357 164.517 181.315 164.44C181.274 164.363 181.215 164.302 181.141 164.257C181.067 164.213 180.981 164.19 180.882 164.19C180.777 164.19 180.685 164.216 180.605 164.267C180.526 164.317 180.464 164.384 180.419 164.466C180.375 164.547 180.353 164.637 180.352 164.734V165.037C180.352 165.164 180.375 165.273 180.422 165.364C180.468 165.454 180.533 165.523 180.616 165.571C180.7 165.618 180.797 165.642 180.909 165.642C180.984 165.642 181.052 165.632 181.112 165.611C181.173 165.589 181.225 165.557 181.27 165.516C181.314 165.474 181.348 165.422 181.371 165.361L181.851 165.415C181.821 165.542 181.763 165.652 181.678 165.747C181.593 165.841 181.485 165.914 181.354 165.966C181.222 166.017 181.071 166.043 180.902 166.043Z" fill="#3D3D3D"/>
<rect x="148.25" y="147.25" width="10.5" height="4.5" rx="0.75" fill="white" stroke="#6D6D6D" stroke-width="0.5"/>
<rect x="154.25" y="150.25" width="10.5" height="4.5" rx="0.75" fill="white" stroke="#6D6D6D" stroke-width="0.5" stroke-dasharray="1.2 1.2"/>
</g>
<defs>
<clipPath id="clip0_909_7">
<rect width="316" height="169" fill="white"/>
</clipPath>
</defs>
</svg>
