<svg width="200" height="64" viewBox="0 0 200 64" fill="none" xmlns="http://www.w3.org/2000/svg">
<rect width="200" height="64" fill="#1674F7"/>
<path d="M87.2202 33.5592C85.4559 33.7153 83.8621 34.3385 82.5298 35.3027L82.5568 35.2836C78.8817 38.4775 81.081 44.3202 88.5175 44.3202C93.5601 43.8755 97.8871 41.1582 100.514 37.212L100.55 37.1531C96.8639 34.8947 92.3998 33.5576 87.6234 33.5576C87.4815 33.5576 87.3381 33.5592 87.1963 33.5607H87.217L87.2202 33.5592ZM107.619 34.9489C109.305 32.0562 110.674 28.7078 111.552 25.1649L111.608 24.9003H102.185V21.5168H113.727V19.6282H102.185V13.9863H97.4759C97.468 13.9863 97.4584 13.9863 97.4488 13.9863C97.0074 13.9863 96.6488 14.3449 96.6488 14.7864C96.6488 14.7912 96.6488 14.7959 96.6488 14.8007V19.6298H84.9762V21.5184H96.6488V24.9019H87.0114V26.7905H105.704C104.967 29.3023 104.052 31.4777 102.925 33.5225L103.011 33.352C96.9468 31.3566 90.473 29.7389 86.4073 30.735C84.3068 31.1574 82.5011 32.2172 81.1543 33.701L81.148 33.709C76.6329 39.1883 79.8714 47.5093 89.4068 47.5093C95.6925 47.1618 101.175 43.9966 104.649 39.2648L104.689 39.209C110.969 42.2196 123.4 47.3881 123.4 47.3881V47.7005C123.395 51.9176 119.977 55.3346 115.758 55.3346C115.753 55.3346 115.75 55.3346 115.745 55.3346H83.2581C83.2549 55.3346 83.2501 55.3346 83.2453 55.3346C79.0267 55.3346 75.6049 51.9176 75.6001 47.6989V15.3075C75.6049 11.0889 79.0251 7.67188 83.2438 7.67188C83.2485 7.67188 83.2533 7.67188 83.2581 7.67188H115.745C115.748 7.67188 115.753 7.67188 115.756 7.67188C119.975 7.67188 123.395 11.0905 123.398 15.3075V40.0218C120.152 39.3795 117.323 38.5428 114.607 37.4798L114.955 37.5993C113.042 36.9602 110.476 35.9833 107.617 34.9521L107.619 34.9489Z" fill="white"/>
</svg>
