<svg width="200" height="64" viewBox="0 0 200 64" fill="none" xmlns="http://www.w3.org/2000/svg">
<rect width="200" height="64" fill="#F7931A"/>
<g clip-path="url(#clip0_106_3)">
<path d="M121.337 37.3219C118.399 49.1077 106.461 56.2797 94.6739 53.3413C82.8922 50.4029 75.7195 38.4652 78.6586 26.68C81.5956 14.8929 93.5326 7.71948 105.316 10.6579C117.103 13.5962 124.276 25.5354 121.337 37.3219Z" fill="white"/>
<path d="M109.698 28.8656C110.135 25.9382 107.906 24.3645 104.859 23.3147L105.847 19.3492L103.433 18.7477L102.47 22.6087C101.836 22.4505 101.185 22.3013 100.537 22.1535L101.506 18.2671L99.0939 17.6655L98.1046 21.6297C97.5793 21.51 97.0637 21.3918 96.5632 21.2673L96.5659 21.255L93.2371 20.4238L92.5949 23.0019C92.5949 23.0019 94.3859 23.4123 94.3481 23.4378C95.3257 23.6818 95.5031 24.3288 95.4728 24.8417L94.3467 29.3592C94.4141 29.3764 94.5014 29.4012 94.5976 29.4397L94.3432 29.3764L92.7641 35.7048C92.6444 36.0018 92.3413 36.4473 91.6579 36.2782C91.6819 36.3133 89.9034 35.8403 89.9034 35.8403L88.7051 38.604L91.8469 39.3871C92.4313 39.5335 93.004 39.6868 93.5671 39.8312L92.5681 43.8428L94.9792 44.4443L95.9692 40.4761C96.6271 40.6548 97.2665 40.8198 97.8921 40.9752L96.9062 44.9249L99.3201 45.5265L100.319 41.5232C104.435 42.3021 107.531 41.9879 108.832 38.2658C109.882 35.2683 108.781 33.5392 106.615 32.411C108.192 32.046 109.381 31.0085 109.698 28.8656ZM104.182 36.5993C103.435 39.5968 98.3892 37.977 96.7523 37.57L98.0777 32.2563C99.714 32.6647 104.96 33.4732 104.182 36.5993ZM104.928 28.8223C104.247 31.5489 100.047 30.1636 98.6834 29.824L99.8852 25.0046C101.249 25.3442 105.637 25.9781 104.928 28.8223Z" fill="#F7931A"/>
</g>
<defs>
<clipPath id="clip0_106_3">
<rect width="44" height="44" fill="white" transform="translate(78 10)"/>
</clipPath>
</defs>
</svg>
