<svg width="200" height="64" viewBox="0 0 200 64" fill="none" xmlns="http://www.w3.org/2000/svg">
<rect width="200" height="64" fill="#00D632"/>
<g clip-path="url(#clip0_106_6)">
<path d="M124.129 13.384C123.588 11.8958 122.727 10.5442 121.607 9.42446C120.487 8.3047 119.136 7.44394 117.648 6.90275C114.864 6.01025 112.335 6.01025 107.192 6.01025H91.765C86.665 6.01025 84.0938 6.01025 81.3525 6.86025C79.8621 7.4037 78.5092 8.26771 77.3893 9.39129C76.2694 10.5149 75.4098 11.8706 74.8712 13.3628C74 16.1253 74 18.6753 74 23.7753V39.224C74 44.3453 74 46.874 74.85 49.6365C75.3912 51.1247 76.252 52.4763 77.3717 53.596C78.4915 54.7158 79.843 55.5766 81.3313 56.1178C84.0938 56.989 86.6438 56.989 91.7438 56.989H107.214C112.335 56.989 114.885 56.989 117.626 56.139C119.121 55.5982 120.478 54.7354 121.601 53.6116C122.725 52.4879 123.588 51.1308 124.129 49.6365C125 46.874 125 44.324 125 39.224V23.8178C125 18.6965 125 16.1465 124.129 13.384ZM111.018 23.2228L109.041 25.199C108.849 25.3781 108.596 25.4795 108.333 25.4834C108.07 25.4873 107.815 25.3936 107.617 25.2203C105.704 23.6039 103.28 22.7158 100.775 22.7128C98.7138 22.7128 96.6525 23.3928 96.6525 25.284C96.6525 27.1965 98.8625 27.834 101.412 28.7903C105.875 30.2778 109.572 32.1478 109.572 36.5253C109.572 41.2853 105.875 44.5578 99.84 44.919L99.2875 47.469C99.2386 47.7033 99.1106 47.9137 98.9248 48.0646C98.739 48.2156 98.5069 48.2979 98.2675 48.2978H94.4638L94.2725 48.2765C94.0002 48.2154 93.7629 48.0497 93.6118 47.8151C93.4608 47.5805 93.408 47.2959 93.465 47.0228L94.06 44.324C91.7697 43.7499 89.6635 42.6017 87.94 40.9878V40.9665C87.8449 40.8717 87.7695 40.7591 87.718 40.6352C87.6665 40.5112 87.64 40.3783 87.64 40.244C87.64 40.1098 87.6665 39.9768 87.718 39.8528C87.7695 39.7289 87.8449 39.6163 87.94 39.5215L90.065 37.4603C90.258 37.2795 90.5125 37.1789 90.7769 37.1789C91.0413 37.1789 91.2958 37.2795 91.4887 37.4603C93.4225 39.2878 96.015 40.3078 98.6925 40.2653C101.455 40.2653 103.304 39.0965 103.304 37.2478C103.304 35.399 101.434 34.9103 97.9062 33.5928C94.1663 32.254 90.6175 30.3628 90.6175 25.9428C90.6175 20.8003 94.8887 18.2928 99.9463 18.059L100.478 15.4453C100.527 15.213 100.656 15.0052 100.842 14.8578C101.028 14.7104 101.26 14.6326 101.497 14.6378H105.28L105.492 14.659C106.045 14.7865 106.406 15.3178 106.279 15.8703L105.705 18.7815C107.618 19.419 109.424 20.4178 110.975 21.7353L111.018 21.7778C111.421 22.2028 111.421 22.8403 111.018 23.2228Z" fill="white"/>
</g>
<defs>
<clipPath id="clip0_106_6">
<rect width="51" height="51" fill="white" transform="translate(74 6)"/>
</clipPath>
</defs>
</svg>
