<svg width="200" height="64" viewBox="0 0 200 64" fill="none" xmlns="http://www.w3.org/2000/svg">
<g clip-path="url(#clip0_106_7)">
<rect width="200" height="64" fill="#FFC439"/>
<path d="M68.7457 20.6267C67.5613 19.8124 66.0156 19.4043 64.1088 19.4043H56.7267C56.1421 19.4043 55.8192 19.6966 55.7578 20.2808L52.7589 39.1053C52.7278 39.2902 52.774 39.4593 52.8973 39.613C53.0198 39.767 53.174 39.8436 53.3586 39.8436H56.865C57.48 39.8436 57.8181 39.5519 57.8801 38.9671L58.7105 33.8921C58.7408 33.6462 58.849 33.4462 59.0336 33.2922C59.218 33.1385 59.4488 33.038 59.7256 32.9918C60.0024 32.9461 60.2635 32.9232 60.51 32.9232C60.7558 32.9232 61.0478 32.9387 61.3867 32.9693C61.7248 33 61.9403 33.015 62.0326 33.015C64.6777 33.015 66.7539 32.2696 68.2613 30.7775C69.768 29.2858 70.5222 27.2175 70.5222 24.5718C70.5222 22.7572 69.9296 21.4423 68.7457 20.6267ZM64.9395 26.279C64.7852 27.3557 64.3858 28.0628 63.7399 28.4013C63.0938 28.7402 62.1711 28.9087 60.9717 28.9087L59.449 28.9548L60.2336 24.018C60.2948 23.6799 60.4946 23.5107 60.8332 23.5107H61.7101C62.9398 23.5107 63.8324 23.688 64.3861 24.0411C64.9395 24.3951 65.1241 25.1412 64.9395 26.279Z" fill="#003087"/>
<path d="M146.65 19.4043H143.236C142.897 19.4043 142.698 19.5735 142.637 19.912L139.637 39.1054L139.591 39.1977C139.591 39.3522 139.653 39.4976 139.776 39.6361C139.898 39.7743 140.053 39.8436 140.237 39.8436H143.283C143.866 39.8436 144.189 39.5519 144.252 38.9671L147.251 20.096V20.0502C147.25 19.6196 147.05 19.4043 146.65 19.4043Z" fill="#009CDE"/>
<path d="M105.403 26.8324C105.403 26.679 105.341 26.5326 105.219 26.3944C105.095 26.256 104.957 26.1865 104.803 26.1865H101.25C100.911 26.1865 100.635 26.3411 100.42 26.6478L95.5294 33.8458L93.4993 26.9249C93.3449 26.4332 93.0068 26.1865 92.4843 26.1865H89.0234C88.8693 26.1865 88.7309 26.2559 88.6087 26.3944C88.4853 26.5326 88.4241 26.6791 88.4241 26.8324C88.4241 26.8945 88.724 27.8014 89.3237 29.5546C89.9233 31.3083 90.5692 33.2 91.2614 35.2302C91.9535 37.26 92.3147 38.3372 92.3456 38.4594C89.8232 41.9047 88.5624 43.7503 88.5624 43.9959C88.5624 44.3962 88.7621 44.5959 89.1622 44.5959H92.7149C93.0531 44.5959 93.3298 44.4424 93.5454 44.1347L105.311 27.1554C105.372 27.0943 105.403 26.9871 105.403 26.8324Z" fill="#003087"/>
<path d="M138.484 26.1862H134.977C134.547 26.1862 134.286 26.6939 134.194 27.709C133.393 26.4791 131.933 25.8633 129.81 25.8633C127.595 25.8633 125.711 26.6939 124.158 28.3549C122.605 30.0159 121.828 31.9695 121.828 34.2147C121.828 36.0298 122.359 37.4753 123.42 38.5515C124.481 39.6288 125.903 40.1664 127.688 40.1664C128.58 40.1664 129.487 39.9815 130.41 39.6127C131.333 39.2437 132.055 38.7518 132.579 38.1363C132.579 38.1672 132.547 38.3054 132.486 38.5514C132.424 38.7979 132.394 38.9828 132.394 39.105C132.394 39.5978 132.593 39.8432 132.994 39.8432H136.178C136.761 39.8432 137.1 39.5515 137.192 38.9667L139.084 26.9245C139.114 26.7399 139.068 26.5709 138.946 26.4169C138.822 26.2634 138.669 26.1862 138.484 26.1862ZM132.463 35.2758C131.679 36.0448 130.733 36.4291 129.626 36.4291C128.733 36.4291 128.011 36.1834 127.457 35.6909C126.903 35.1996 126.627 34.5228 126.627 33.6609C126.627 32.5235 127.011 31.5616 127.78 30.7773C128.548 29.9929 129.503 29.6007 130.641 29.6007C131.501 29.6007 132.216 29.8546 132.786 30.3619C133.355 30.8696 133.64 31.5695 133.64 32.4616C133.64 33.5688 133.247 34.5072 132.463 35.2758Z" fill="#009CDE"/>
<path d="M86.0711 26.1862H82.5644C82.1332 26.1862 81.8723 26.6939 81.7799 27.709C80.9494 26.4791 79.4883 25.8633 77.3967 25.8633C75.182 25.8633 73.2978 26.6939 71.7447 28.3549C70.1911 30.0159 69.4148 31.9695 69.4148 34.2147C69.4148 36.0298 69.9455 37.4753 71.0067 38.5515C72.0679 39.6288 73.4902 40.1664 75.2744 40.1664C76.1352 40.1664 77.0278 39.9815 77.9504 39.6127C78.8731 39.2437 79.6114 38.7518 80.165 38.1363C80.0416 38.5054 79.9804 38.8285 79.9804 39.105C79.9804 39.5978 80.1803 39.8432 80.5802 39.8432H83.7637C84.3477 39.8432 84.6865 39.5515 84.7788 38.9667L86.6704 26.9245C86.7007 26.7399 86.6548 26.5709 86.5321 26.4169C86.4089 26.2634 86.2552 26.1862 86.0711 26.1862ZM80.0498 35.2986C79.2653 36.0531 78.3036 36.4291 77.1663 36.4291C76.2737 36.4291 75.5586 36.1834 75.0207 35.6909C74.4821 35.1996 74.2132 34.5228 74.2132 33.6609C74.2132 32.5235 74.5975 31.5616 75.3668 30.7773C76.1352 29.9929 77.0888 29.6007 78.2273 29.6007C79.0882 29.6007 79.8033 29.8546 80.3729 30.3619C80.9415 30.8696 81.2264 31.5695 81.2264 32.4616C81.2264 33.5997 80.8342 34.5458 80.0498 35.2986Z" fill="#003087"/>
<path d="M121.159 20.6267C119.975 19.8124 118.429 19.4043 116.522 19.4043H109.186C108.571 19.4043 108.232 19.6966 108.171 20.2808L105.172 39.1053C105.141 39.2902 105.187 39.4593 105.31 39.613C105.433 39.767 105.587 39.8436 105.772 39.8436H109.555C109.924 39.8436 110.17 39.6439 110.293 39.2439L111.124 33.8921C111.154 33.6462 111.262 33.4462 111.447 33.2922C111.631 33.1385 111.862 33.038 112.139 32.9918C112.416 32.9461 112.677 32.9232 112.923 32.9232C113.169 32.9232 113.461 32.9387 113.8 32.9693C114.138 33 114.354 33.015 114.446 33.015C117.091 33.015 119.167 32.2696 120.674 30.7775C122.182 29.2858 122.935 27.2175 122.935 24.5718C122.935 22.7572 122.343 21.4423 121.159 20.6267ZM116.43 28.2167C115.753 28.678 114.738 28.9086 113.385 28.9086L111.908 28.9547L112.693 24.0178C112.754 23.6798 112.954 23.5105 113.292 23.5105H114.123C114.799 23.5105 115.337 23.5413 115.738 23.6026C116.137 23.6645 116.522 23.8563 116.891 24.1793C117.261 24.5022 117.445 24.9716 117.445 25.5866C117.445 26.8787 117.106 27.755 116.43 28.2167Z" fill="#009CDE"/>
</g>
<defs>
<clipPath id="clip0_106_7">
<rect width="200" height="64" fill="white"/>
</clipPath>
</defs>
</svg>
