<svg width="200" height="64" viewBox="0 0 200 64" fill="none" xmlns="http://www.w3.org/2000/svg">
<g clip-path="url(#clip0_106_8)">
<rect width="200" height="64" fill="#3396CD"/>
<g clip-path="url(#clip1_106_8)">
<path d="M66.2576 22.0918C66.9506 23.2025 67.2445 24.3317 67.2445 25.7641C67.2445 30.3428 63.3247 36.2859 60.1536 40.4934H52.9359L50.0031 23.0911L56.3514 22.463L57.8828 34.838C59.3338 32.5332 61.1034 28.8578 61.1034 26.3457C61.1034 24.9937 60.8466 24.0409 60.4754 23.252L66.2576 22.0918ZM74.5056 29.7272C75.6533 29.7272 78.6295 29.195 78.6295 27.5368C78.6295 26.717 78.051 26.2962 77.392 26.2962C76.2009 26.2962 74.6664 27.7472 74.5056 29.7272ZM74.3787 33.0313C74.3787 35.0948 75.4925 35.9147 77.0239 35.9147C78.6666 35.9147 80.195 35.497 82.2585 34.4668L81.4696 39.6674C80.0341 40.3604 77.7942 40.8306 75.6193 40.8306C70.1248 40.8306 68.1417 37.5265 68.1417 33.319C68.1417 27.908 71.3685 22.1691 77.9706 22.1691C81.5964 22.1691 83.66 24.1986 83.66 27.0542C83.66 31.5834 77.7602 33.0313 74.3787 33.0653V33.0313ZM101.984 26.1322C101.984 26.8407 101.851 27.7936 101.774 28.4556L99.8712 40.4934H93.6837L95.4255 29.4395L95.5369 28.1989C95.5369 27.379 95.0542 27.2181 94.4726 27.2181C93.6342 27.2181 92.8144 27.5894 92.3317 27.8276L90.3486 40.4965H84.1611L86.9672 22.4661H92.3348L92.4122 23.914C93.6868 23.0942 95.3791 22.1413 97.7303 22.1413C100.858 22.1413 101.987 23.7872 101.987 26.1879L101.984 26.1322ZM120.336 24.1213C122.106 22.8807 123.752 22.1382 126.103 22.1382C129.246 22.1382 130.357 23.7841 130.357 26.1848C130.345 26.9428 130.28 27.6977 130.15 28.4587L128.247 40.4965H122.06L123.829 29.2322L123.928 28.3288C123.928 27.4285 123.43 27.2181 122.799 27.2181C122.06 27.2181 121.286 27.5399 120.735 27.8276L118.771 40.4965H112.583L114.356 29.1981L114.433 28.3288C114.433 27.4285 113.935 27.2181 113.323 27.2181C112.481 27.2181 111.711 27.5894 111.16 27.8276L109.227 40.4625H103.011L105.845 22.4661H111.129L111.34 23.9635C112.58 23.0447 114.223 22.1413 116.448 22.1413C118.431 22.1413 119.674 22.9673 120.333 24.1244L120.336 24.1213ZM142.652 29.3559C142.652 27.908 142.28 26.8778 141.201 26.8778C138.738 26.8778 138.24 31.2122 138.24 33.4025C138.24 35.0948 138.688 36.1251 139.802 36.1251C142.104 36.1251 142.652 31.5834 142.652 29.3559ZM131.919 33.1427C131.919 27.4595 134.985 22.1382 141.866 22.1382C147.1 22.1382 149.003 25.232 149.003 29.489C149.003 35.0948 146.036 40.9111 138.933 40.9111C133.695 40.9111 131.919 37.4801 131.919 33.1427Z" fill="white"/>
</g>
</g>
<defs>
<clipPath id="clip0_106_8">
<rect width="200" height="64" fill="white"/>
</clipPath>
<clipPath id="clip1_106_8">
<rect width="99" height="99" fill="white" transform="translate(50 -18)"/>
</clipPath>
</defs>
</svg>
