<svg width="200" height="64" viewBox="0 0 200 64" fill="none" xmlns="http://www.w3.org/2000/svg">
<rect width="200" height="64" fill="#6D1ED4"/>
<path d="M70.0764 20.1508L63.3959 20.0896V24.4983H74.4672L62.9615 39.1687V42.8995H70.0764V47.1965H74.3453V42.8995H81.6024C81.6634 42.7276 81.6847 42.2641 81.2985 41.8395C80.6582 41.1318 80.1489 40.3921 79.6814 39.4619C79.468 39.0474 79.3058 38.5509 79.2449 38.5105C77.8158 38.4453 69.5942 38.4622 69.5987 38.4104L81.1145 23.65V20.1508H74.3453V15.8032H70.0764V20.1508ZM100.904 18.0983C100.802 18.1388 100.772 20.3732 100.772 28.8357C100.772 40.2707 100.762 40.0786 101.27 41.0594C101.727 41.939 102.845 42.7276 104.095 43.0511C104.787 43.2331 106.819 43.2534 107.602 43.0916C108.608 42.8793 108.801 42.576 108.405 41.7974C108.151 41.3121 107.815 40.2505 107.734 39.6641C107.622 38.9665 107.48 38.8553 106.626 38.8755C106.22 38.8856 105.833 38.8553 105.762 38.8148C105.346 38.552 105.346 38.4812 105.346 28.2392C105.346 21.6572 105.315 18.3511 105.244 18.2196C105.142 18.0377 105.01 18.0275 103.079 18.0377C101.951 18.0377 100.965 18.068 100.904 18.0983ZM110.224 18.1286C110.092 18.2095 110.072 19.5037 110.072 28.7649C110.072 38.7441 110.082 39.3507 110.265 40.0483C110.611 41.4234 111.393 42.2625 112.877 42.8793C113.446 43.1118 113.7 43.1523 114.849 43.1826C116.384 43.223 117.166 43.1118 117.949 42.7175C118.721 42.3434 118.742 42.0805 118.081 41.12C117.817 40.7358 117.41 40.0786 117.187 39.6641L116.78 38.9058L116.038 38.8957C115.113 38.8755 115.022 38.8351 114.849 38.4003C114.717 38.1071 114.697 36.6006 114.697 28.2392C114.697 21.6572 114.666 18.3511 114.595 18.2196C114.493 18.0377 114.361 18.0275 112.43 18.0275C111.302 18.0275 110.306 18.0781 110.224 18.1286Z" fill="white"/>
<path d="M88.1176 24.4479C88.0667 24.4682 87.6703 24.5591 87.2536 24.6501C84.6415 25.2467 82.3342 27.2384 81.3585 29.7661C80.8198 31.1613 80.6267 32.2432 80.6165 33.8507C80.6063 36.1054 81.0637 37.7635 82.1106 39.3408C83.2896 41.1101 85.0175 42.3133 87.2536 42.9199C88.0159 43.1221 88.3513 43.1524 90.0996 43.1524C91.8274 43.1524 92.1832 43.1221 92.9048 42.93C94.6937 42.4346 96.2183 41.6156 97.4482 40.4529C98.2308 39.725 98.2206 39.5228 97.4278 38.9161C97.1026 38.6634 96.5131 38.1174 96.1268 37.6928C95.639 37.1771 95.3442 36.9345 95.1917 36.9345C95.0494 36.9345 94.7242 37.1367 94.4091 37.44C93.3216 38.4207 91.9494 38.8858 90.1504 38.8757C88.5038 38.8656 87.3044 38.4409 86.5421 37.5714C86.1559 37.1367 85.668 36.1458 85.5664 35.5898L85.5054 35.2157H91.8376C95.3239 35.2157 98.2409 35.1752 98.3121 35.1247C98.6475 34.9124 98.7288 33.4463 98.4849 31.8489C97.9055 28.0271 95.6085 25.459 92.0002 24.5996C91.3599 24.4479 90.8314 24.3974 89.693 24.4075C88.8799 24.4075 88.1785 24.4277 88.1176 24.4479ZM90.8314 28.3506C91.5733 28.5023 92.4881 29.0078 92.915 29.4931C93.3114 29.938 93.718 30.7367 93.8196 31.2523L93.8907 31.5759H85.607L85.6782 31.2523C85.9831 29.8874 87.1621 28.7449 88.6258 28.3809C89.2763 28.2192 90.1504 28.2091 90.8314 28.3506ZM125.064 24.5389C121.456 25.3377 119.016 27.8653 118.254 31.5961C117.797 33.8002 118.051 36.3683 118.915 38.2084C120.094 40.7562 122.238 42.4043 125.165 43.0008C126.09 43.1929 126.456 43.2131 127.91 43.1727C129.14 43.1322 129.8 43.0615 130.369 42.9098C132.108 42.4548 133.632 41.6258 134.801 40.5136C135.695 39.6542 135.695 39.6138 134.73 38.815C134.283 38.451 133.683 37.8747 133.398 37.5411C132.738 36.7828 132.565 36.7727 131.823 37.44C130.715 38.4409 129.394 38.8858 127.554 38.8757C124.972 38.8656 123.468 37.7635 122.98 35.5392L122.909 35.2768H135.787C136.224 34.9634 136.061 31.6466 135.533 30.1098C135.431 29.8065 135.157 29.1999 134.933 28.7752C133.744 26.5105 131.843 25.1051 129.201 24.549C128.357 24.367 125.867 24.367 125.064 24.5389ZM128.235 28.3506C128.926 28.5023 129.638 28.8561 130.146 29.3111C130.573 29.7054 131.264 30.949 131.264 31.3332V31.5759H123.011L123.082 31.2928C123.61 29.1291 125.846 27.8451 128.235 28.3506Z" fill="white"/>
</svg>
